<?xml version="1.0" encoding="utf-8" standalone="no"?>
<!DOCTYPE svg PUBLIC "-//W3C//DTD SVG 1.1//EN"
  "http://www.w3.org/Graphics/SVG/1.1/DTD/svg11.dtd">
<!-- Created with matplotlib (https://matplotlib.org/) -->
<svg height="576pt" version="1.1" viewBox="0 0 216 576" width="216pt" xmlns="http://www.w3.org/2000/svg" xmlns:xlink="http://www.w3.org/1999/xlink">
 <metadata>
  <rdf:RDF xmlns:cc="http://creativecommons.org/ns#" xmlns:dc="http://purl.org/dc/elements/1.1/" xmlns:rdf="http://www.w3.org/1999/02/22-rdf-syntax-ns#">
   <cc:Work>
    <dc:type rdf:resource="http://purl.org/dc/dcmitype/StillImage"/>
    <dc:date>2021-04-11T22:10:29.374583</dc:date>
    <dc:format>image/svg+xml</dc:format>
    <dc:creator>
     <cc:Agent>
      <dc:title>Matplotlib v3.3.2, https://matplotlib.org/</dc:title>
     </cc:Agent>
    </dc:creator>
   </cc:Work>
  </rdf:RDF>
 </metadata>
 <defs>
  <style type="text/css">*{stroke-linecap:butt;stroke-linejoin:round;}</style>
 </defs>
 <g id="figure_1">
  <g id="patch_1">
   <path d="M 0 576 
L 216 576 
L 216 0 
L 0 0 
z
" style="fill:none;"/>
  </g>
  <g id="axes_1">
   <g id="patch_2">
    <path d="M 27 200.595349 
L 194.4 200.595349 
L 194.4 99.460465 
L 27 99.460465 
z
" style="fill:none;opacity:0;"/>
   </g>
   <g id="PolyCollection_1">
    <defs>
     <path d="M 27 -375.404651 
L 27 -375.404651 
L 29.118987 -375.404651 
L 31.237975 -375.404651 
L 33.356962 -375.404651 
L 35.475949 -375.404651 
L 37.594937 -375.404651 
L 39.713924 -375.404651 
L 41.832911 -376.926183 
L 43.951899 -386.190516 
L 46.070886 -403.522409 
L 48.189873 -424.651725 
L 50.308861 -442.945892 
L 52.427848 -452.122865 
L 54.546835 -448.740267 
L 56.665823 -433.69101 
L 58.78481 -412.117362 
L 60.903797 -391.561165 
L 63.022785 -378.689359 
L 65.141772 -375.404651 
L 67.260759 -375.404651 
L 69.379747 -375.404651 
L 71.498734 -378.871128 
L 73.617722 -385.916055 
L 75.736709 -392.342166 
L 77.855696 -393.767151 
L 79.974684 -388.923616 
L 82.093671 -380.905042 
L 84.212658 -375.404651 
L 86.331646 -375.404651 
L 88.450633 -375.404651 
L 90.56962 -375.404651 
L 92.688608 -375.404651 
L 94.807595 -375.404651 
L 96.926582 -375.404651 
L 99.04557 -375.404651 
L 101.164557 -375.404651 
L 103.283544 -375.404651 
L 105.402532 -375.404651 
L 107.521519 -375.404651 
L 109.640506 -375.404651 
L 111.759494 -375.404651 
L 113.878481 -375.404651 
L 115.997468 -375.404651 
L 118.116456 -375.404651 
L 120.235443 -375.404651 
L 122.35443 -375.404651 
L 124.473418 -375.404651 
L 126.592405 -375.404651 
L 128.711392 -375.404651 
L 130.83038 -375.404651 
L 132.949367 -375.404651 
L 135.068354 -375.404651 
L 137.187342 -375.404651 
L 139.306329 -375.404651 
L 141.425316 -375.404651 
L 143.544304 -375.404651 
L 145.663291 -375.404651 
L 147.782278 -375.404651 
L 149.901266 -375.404651 
L 152.020253 -375.404651 
L 154.139241 -375.404651 
L 156.258228 -375.404651 
L 158.377215 -375.404651 
L 160.496203 -375.404651 
L 162.61519 -375.404651 
L 164.734177 -375.404651 
L 166.853165 -375.404651 
L 168.972152 -375.404651 
L 171.091139 -375.404651 
L 173.210127 -375.404651 
L 175.329114 -375.404651 
L 177.448101 -375.404651 
L 179.567089 -375.404651 
L 181.686076 -375.404651 
L 183.805063 -375.404651 
L 185.924051 -375.404651 
L 188.043038 -375.404651 
L 190.162025 -375.404651 
L 192.281013 -375.404651 
L 194.4 -375.404651 
L 194.4 -375.404651 
L 194.4 -375.404651 
L 192.281013 -375.404651 
L 190.162025 -375.404651 
L 188.043038 -375.404651 
L 185.924051 -375.404651 
L 183.805063 -375.404651 
L 181.686076 -375.404651 
L 179.567089 -375.404651 
L 177.448101 -375.404651 
L 175.329114 -375.404651 
L 173.210127 -375.404651 
L 171.091139 -375.404651 
L 168.972152 -375.404651 
L 166.853165 -375.404651 
L 164.734177 -375.404651 
L 162.61519 -375.404651 
L 160.496203 -375.404651 
L 158.377215 -375.404651 
L 156.258228 -375.404651 
L 154.139241 -375.404651 
L 152.020253 -375.404651 
L 149.901266 -375.404651 
L 147.782278 -375.404651 
L 145.663291 -375.404651 
L 143.544304 -375.404651 
L 141.425316 -375.404651 
L 139.306329 -375.404651 
L 137.187342 -375.404651 
L 135.068354 -375.404651 
L 132.949367 -375.404651 
L 130.83038 -375.404651 
L 128.711392 -375.404651 
L 126.592405 -375.404651 
L 124.473418 -375.404651 
L 122.35443 -375.404651 
L 120.235443 -375.404651 
L 118.116456 -375.404651 
L 115.997468 -375.404651 
L 113.878481 -375.404651 
L 111.759494 -375.404651 
L 109.640506 -375.404651 
L 107.521519 -375.404651 
L 105.402532 -375.404651 
L 103.283544 -375.404651 
L 101.164557 -375.404651 
L 99.04557 -375.404651 
L 96.926582 -375.404651 
L 94.807595 -375.404651 
L 92.688608 -375.404651 
L 90.56962 -375.404651 
L 88.450633 -375.404651 
L 86.331646 -375.404651 
L 84.212658 -375.404651 
L 82.093671 -375.404651 
L 79.974684 -375.404651 
L 77.855696 -375.404651 
L 75.736709 -375.404651 
L 73.617722 -375.404651 
L 71.498734 -375.404651 
L 69.379747 -375.404651 
L 67.260759 -375.404651 
L 65.141772 -375.404651 
L 63.022785 -375.404651 
L 60.903797 -375.404651 
L 58.78481 -375.404651 
L 56.665823 -375.404651 
L 54.546835 -375.404651 
L 52.427848 -375.404651 
L 50.308861 -375.404651 
L 48.189873 -375.404651 
L 46.070886 -375.404651 
L 43.951899 -375.404651 
L 41.832911 -375.404651 
L 39.713924 -375.404651 
L 37.594937 -375.404651 
L 35.475949 -375.404651 
L 33.356962 -375.404651 
L 31.237975 -375.404651 
L 29.118987 -375.404651 
L 27 -375.404651 
z
" id="me2993e1d15" style="stroke:#008000;"/>
    </defs>
    <g clip-path="url(#p157c0aa081)">
     <use style="fill:#008000;stroke:#008000;" x="0" xlink:href="#me2993e1d15" y="576"/>
    </g>
   </g>
   <g id="matplotlib.axis_1"/>
   <g id="matplotlib.axis_2"/>
   <g id="line2d_1">
    <path clip-path="url(#p157c0aa081)" d="M 27 200.595349 
L 29.118987 200.595349 
L 31.237975 200.595349 
L 33.356962 200.595349 
L 35.475949 200.595349 
L 37.594937 200.595349 
L 39.713924 200.595349 
L 41.832911 199.073817 
L 43.951899 189.809484 
L 46.070886 172.477591 
L 48.189873 151.348275 
L 50.308861 133.054108 
L 52.427848 123.877135 
L 54.546835 127.259733 
L 56.665823 142.30899 
L 58.78481 163.882638 
L 60.903797 184.438835 
L 63.022785 197.310641 
L 65.141772 200.595349 
L 67.260759 200.595349 
L 69.379747 200.595349 
L 71.498734 197.128872 
L 73.617722 190.083945 
L 75.736709 183.657834 
L 77.855696 182.232849 
L 79.974684 187.076384 
L 82.093671 195.094958 
L 84.212658 200.595349 
L 86.331646 200.595349 
L 88.450633 200.595349 
L 90.56962 200.595349 
L 92.688608 200.595349 
L 94.807595 200.595349 
L 96.926582 200.595349 
L 99.04557 200.595349 
L 101.164557 200.595349 
L 103.283544 200.595349 
L 105.402532 200.595349 
L 107.521519 200.595349 
L 109.640506 200.595349 
L 111.759494 200.595349 
L 113.878481 200.595349 
L 115.997468 200.595349 
L 118.116456 200.595349 
L 120.235443 200.595349 
L 122.35443 200.595349 
L 124.473418 200.595349 
L 126.592405 200.595349 
L 128.711392 200.595349 
L 130.83038 200.595349 
L 132.949367 200.595349 
L 135.068354 200.595349 
L 137.187342 200.595349 
L 139.306329 200.595349 
L 141.425316 200.595349 
L 143.544304 200.595349 
L 145.663291 200.595349 
L 147.782278 200.595349 
L 149.901266 200.595349 
L 152.020253 200.595349 
L 154.139241 200.595349 
L 156.258228 200.595349 
L 158.377215 200.595349 
L 160.496203 200.595349 
L 162.61519 200.595349 
L 164.734177 200.595349 
L 166.853165 200.595349 
L 168.972152 200.595349 
L 171.091139 200.595349 
L 173.210127 200.595349 
L 175.329114 200.595349 
L 177.448101 200.595349 
L 179.567089 200.595349 
L 181.686076 200.595349 
L 183.805063 200.595349 
L 185.924051 200.595349 
L 188.043038 200.595349 
L 190.162025 200.595349 
L 192.281013 200.595349 
L 194.4 200.595349 
" style="fill:none;stroke:#000000;stroke-linecap:square;"/>
   </g>
   <g id="text_1">
    <!-- 0.25 -->
    <g transform="translate(4.734375 200.595349)scale(0.1 -0.1)">
     <defs>
      <path d="M 31.78125 66.40625 
Q 24.171875 66.40625 20.328125 58.90625 
Q 16.5 51.421875 16.5 36.375 
Q 16.5 21.390625 20.328125 13.890625 
Q 24.171875 6.390625 31.78125 6.390625 
Q 39.453125 6.390625 43.28125 13.890625 
Q 47.125 21.390625 47.125 36.375 
Q 47.125 51.421875 43.28125 58.90625 
Q 39.453125 66.40625 31.78125 66.40625 
z
M 31.78125 74.21875 
Q 44.046875 74.21875 50.515625 64.515625 
Q 56.984375 54.828125 56.984375 36.375 
Q 56.984375 17.96875 50.515625 8.265625 
Q 44.046875 -1.421875 31.78125 -1.421875 
Q 19.53125 -1.421875 13.0625 8.265625 
Q 6.59375 17.96875 6.59375 36.375 
Q 6.59375 54.828125 13.0625 64.515625 
Q 19.53125 74.21875 31.78125 74.21875 
z
" id="DejaVuSans-48"/>
      <path d="M 10.6875 12.40625 
L 21 12.40625 
L 21 0 
L 10.6875 0 
z
" id="DejaVuSans-46"/>
      <path d="M 19.1875 8.296875 
L 53.609375 8.296875 
L 53.609375 0 
L 7.328125 0 
L 7.328125 8.296875 
Q 12.9375 14.109375 22.625 23.890625 
Q 32.328125 33.6875 34.8125 36.53125 
Q 39.546875 41.84375 41.421875 45.53125 
Q 43.3125 49.21875 43.3125 52.78125 
Q 43.3125 58.59375 39.234375 62.25 
Q 35.15625 65.921875 28.609375 65.921875 
Q 23.96875 65.921875 18.8125 64.3125 
Q 13.671875 62.703125 7.8125 59.421875 
L 7.8125 69.390625 
Q 13.765625 71.78125 18.9375 73 
Q 24.125 74.21875 28.421875 74.21875 
Q 39.75 74.21875 46.484375 68.546875 
Q 53.21875 62.890625 53.21875 53.421875 
Q 53.21875 48.921875 51.53125 44.890625 
Q 49.859375 40.875 45.40625 35.40625 
Q 44.1875 33.984375 37.640625 27.21875 
Q 31.109375 20.453125 19.1875 8.296875 
z
" id="DejaVuSans-50"/>
      <path d="M 10.796875 72.90625 
L 49.515625 72.90625 
L 49.515625 64.59375 
L 19.828125 64.59375 
L 19.828125 46.734375 
Q 21.96875 47.46875 24.109375 47.828125 
Q 26.265625 48.1875 28.421875 48.1875 
Q 40.625 48.1875 47.75 41.5 
Q 54.890625 34.8125 54.890625 23.390625 
Q 54.890625 11.625 47.5625 5.09375 
Q 40.234375 -1.421875 26.90625 -1.421875 
Q 22.3125 -1.421875 17.546875 -0.640625 
Q 12.796875 0.140625 7.71875 1.703125 
L 7.71875 11.625 
Q 12.109375 9.234375 16.796875 8.0625 
Q 21.484375 6.890625 26.703125 6.890625 
Q 35.15625 6.890625 40.078125 11.328125 
Q 45.015625 15.765625 45.015625 23.390625 
Q 45.015625 31 40.078125 35.4375 
Q 35.15625 39.890625 26.703125 39.890625 
Q 22.75 39.890625 18.8125 39.015625 
Q 14.890625 38.140625 10.796875 36.28125 
z
" id="DejaVuSans-53"/>
     </defs>
     <use xlink:href="#DejaVuSans-48"/>
     <use x="63.623047" xlink:href="#DejaVuSans-46"/>
     <use x="95.410156" xlink:href="#DejaVuSans-50"/>
     <use x="159.033203" xlink:href="#DejaVuSans-53"/>
    </g>
   </g>
  </g>
  <g id="axes_2">
   <g id="patch_3">
    <path d="M 27 230.935814 
L 194.4 230.935814 
L 194.4 129.80093 
L 27 129.80093 
z
" style="fill:none;opacity:0;"/>
   </g>
   <g id="PolyCollection_2">
    <defs>
     <path d="M 27 -345.064186 
L 27 -345.064186 
L 29.118987 -345.064186 
L 31.237975 -345.064186 
L 33.356962 -345.064186 
L 35.475949 -345.064186 
L 37.594937 -345.064186 
L 39.713924 -345.064186 
L 41.832911 -345.064186 
L 43.951899 -345.064186 
L 46.070886 -346.709497 
L 48.189873 -351.482365 
L 50.308861 -358.859546 
L 52.427848 -367.045905 
L 54.546835 -373.815704 
L 56.665823 -377.293316 
L 58.78481 -376.526926 
L 60.903797 -371.761198 
L 63.022785 -364.37878 
L 65.141772 -356.542149 
L 67.260759 -350.619335 
L 69.379747 -348.517097 
L 71.498734 -351.074086 
L 73.617722 -357.681899 
L 75.736709 -366.290323 
L 77.855696 -373.892482 
L 79.974684 -377.461698 
L 82.093671 -375.135898 
L 84.212658 -367.258402 
L 86.331646 -356.741036 
L 88.450633 -348.162021 
L 90.56962 -345.064186 
L 92.688608 -345.064186 
L 94.807595 -345.064186 
L 96.926582 -345.064186 
L 99.04557 -345.064186 
L 101.164557 -345.064186 
L 103.283544 -345.064186 
L 105.402532 -345.064186 
L 107.521519 -345.064186 
L 109.640506 -345.064186 
L 111.759494 -345.064186 
L 113.878481 -345.064186 
L 115.997468 -345.064186 
L 118.116456 -345.064186 
L 120.235443 -345.064186 
L 122.35443 -345.064186 
L 124.473418 -345.064186 
L 126.592405 -345.064186 
L 128.711392 -345.064186 
L 130.83038 -345.064186 
L 132.949367 -345.064186 
L 135.068354 -345.064186 
L 137.187342 -345.064186 
L 139.306329 -345.064186 
L 141.425316 -345.064186 
L 143.544304 -345.064186 
L 145.663291 -345.064186 
L 147.782278 -345.064186 
L 149.901266 -345.064186 
L 152.020253 -345.064186 
L 154.139241 -345.064186 
L 156.258228 -345.064186 
L 158.377215 -345.064186 
L 160.496203 -345.064186 
L 162.61519 -345.064186 
L 164.734177 -345.064186 
L 166.853165 -345.064186 
L 168.972152 -345.064186 
L 171.091139 -345.064186 
L 173.210127 -345.064186 
L 175.329114 -345.064186 
L 177.448101 -345.064186 
L 179.567089 -345.064186 
L 181.686076 -345.064186 
L 183.805063 -345.064186 
L 185.924051 -345.064186 
L 188.043038 -345.064186 
L 190.162025 -345.064186 
L 192.281013 -345.064186 
L 194.4 -345.064186 
L 194.4 -345.064186 
L 194.4 -345.064186 
L 192.281013 -345.064186 
L 190.162025 -345.064186 
L 188.043038 -345.064186 
L 185.924051 -345.064186 
L 183.805063 -345.064186 
L 181.686076 -345.064186 
L 179.567089 -345.064186 
L 177.448101 -345.064186 
L 175.329114 -345.064186 
L 173.210127 -345.064186 
L 171.091139 -345.064186 
L 168.972152 -345.064186 
L 166.853165 -345.064186 
L 164.734177 -345.064186 
L 162.61519 -345.064186 
L 160.496203 -345.064186 
L 158.377215 -345.064186 
L 156.258228 -345.064186 
L 154.139241 -345.064186 
L 152.020253 -345.064186 
L 149.901266 -345.064186 
L 147.782278 -345.064186 
L 145.663291 -345.064186 
L 143.544304 -345.064186 
L 141.425316 -345.064186 
L 139.306329 -345.064186 
L 137.187342 -345.064186 
L 135.068354 -345.064186 
L 132.949367 -345.064186 
L 130.83038 -345.064186 
L 128.711392 -345.064186 
L 126.592405 -345.064186 
L 124.473418 -345.064186 
L 122.35443 -345.064186 
L 120.235443 -345.064186 
L 118.116456 -345.064186 
L 115.997468 -345.064186 
L 113.878481 -345.064186 
L 111.759494 -345.064186 
L 109.640506 -345.064186 
L 107.521519 -345.064186 
L 105.402532 -345.064186 
L 103.283544 -345.064186 
L 101.164557 -345.064186 
L 99.04557 -345.064186 
L 96.926582 -345.064186 
L 94.807595 -345.064186 
L 92.688608 -345.064186 
L 90.56962 -345.064186 
L 88.450633 -345.064186 
L 86.331646 -345.064186 
L 84.212658 -345.064186 
L 82.093671 -345.064186 
L 79.974684 -345.064186 
L 77.855696 -345.064186 
L 75.736709 -345.064186 
L 73.617722 -345.064186 
L 71.498734 -345.064186 
L 69.379747 -345.064186 
L 67.260759 -345.064186 
L 65.141772 -345.064186 
L 63.022785 -345.064186 
L 60.903797 -345.064186 
L 58.78481 -345.064186 
L 56.665823 -345.064186 
L 54.546835 -345.064186 
L 52.427848 -345.064186 
L 50.308861 -345.064186 
L 48.189873 -345.064186 
L 46.070886 -345.064186 
L 43.951899 -345.064186 
L 41.832911 -345.064186 
L 39.713924 -345.064186 
L 37.594937 -345.064186 
L 35.475949 -345.064186 
L 33.356962 -345.064186 
L 31.237975 -345.064186 
L 29.118987 -345.064186 
L 27 -345.064186 
z
" id="mc9e57e9b34" style="stroke:#008000;"/>
    </defs>
    <g clip-path="url(#pa4caad356c)">
     <use style="fill:#008000;stroke:#008000;" x="0" xlink:href="#mc9e57e9b34" y="576"/>
    </g>
   </g>
   <g id="matplotlib.axis_3"/>
   <g id="matplotlib.axis_4"/>
   <g id="line2d_2">
    <path clip-path="url(#pa4caad356c)" d="M 27 230.935814 
L 29.118987 230.935814 
L 31.237975 230.935814 
L 33.356962 230.935814 
L 35.475949 230.935814 
L 37.594937 230.935814 
L 39.713924 230.935814 
L 41.832911 230.935814 
L 43.951899 230.935814 
L 46.070886 229.290503 
L 48.189873 224.517635 
L 50.308861 217.140454 
L 52.427848 208.954095 
L 54.546835 202.184296 
L 56.665823 198.706684 
L 58.78481 199.473074 
L 60.903797 204.238802 
L 63.022785 211.62122 
L 65.141772 219.457851 
L 67.260759 225.380665 
L 69.379747 227.482903 
L 71.498734 224.925914 
L 73.617722 218.318101 
L 75.736709 209.709677 
L 77.855696 202.107518 
L 79.974684 198.538302 
L 82.093671 200.864102 
L 84.212658 208.741598 
L 86.331646 219.258964 
L 88.450633 227.837979 
L 90.56962 230.935814 
L 92.688608 230.935814 
L 94.807595 230.935814 
L 96.926582 230.935814 
L 99.04557 230.935814 
L 101.164557 230.935814 
L 103.283544 230.935814 
L 105.402532 230.935814 
L 107.521519 230.935814 
L 109.640506 230.935814 
L 111.759494 230.935814 
L 113.878481 230.935814 
L 115.997468 230.935814 
L 118.116456 230.935814 
L 120.235443 230.935814 
L 122.35443 230.935814 
L 124.473418 230.935814 
L 126.592405 230.935814 
L 128.711392 230.935814 
L 130.83038 230.935814 
L 132.949367 230.935814 
L 135.068354 230.935814 
L 137.187342 230.935814 
L 139.306329 230.935814 
L 141.425316 230.935814 
L 143.544304 230.935814 
L 145.663291 230.935814 
L 147.782278 230.935814 
L 149.901266 230.935814 
L 152.020253 230.935814 
L 154.139241 230.935814 
L 156.258228 230.935814 
L 158.377215 230.935814 
L 160.496203 230.935814 
L 162.61519 230.935814 
L 164.734177 230.935814 
L 166.853165 230.935814 
L 168.972152 230.935814 
L 171.091139 230.935814 
L 173.210127 230.935814 
L 175.329114 230.935814 
L 177.448101 230.935814 
L 179.567089 230.935814 
L 181.686076 230.935814 
L 183.805063 230.935814 
L 185.924051 230.935814 
L 188.043038 230.935814 
L 190.162025 230.935814 
L 192.281013 230.935814 
L 194.4 230.935814 
" style="fill:none;stroke:#000000;stroke-linecap:square;"/>
   </g>
   <g id="text_2">
    <!-- 0.50 -->
    <g transform="translate(4.734375 230.935814)scale(0.1 -0.1)">
     <use xlink:href="#DejaVuSans-48"/>
     <use x="63.623047" xlink:href="#DejaVuSans-46"/>
     <use x="95.410156" xlink:href="#DejaVuSans-53"/>
     <use x="159.033203" xlink:href="#DejaVuSans-48"/>
    </g>
   </g>
  </g>
  <g id="axes_3">
   <g id="patch_4">
    <path d="M 27 261.276279 
L 194.4 261.276279 
L 194.4 160.141395 
L 27 160.141395 
z
" style="fill:none;opacity:0;"/>
   </g>
   <g id="PolyCollection_3">
    <defs>
     <path d="M 27 -314.723721 
L 27 -314.723721 
L 29.118987 -314.723721 
L 31.237975 -314.723721 
L 33.356962 -314.723721 
L 35.475949 -314.723721 
L 37.594937 -314.723721 
L 39.713924 -314.723721 
L 41.832911 -314.723721 
L 43.951899 -314.723721 
L 46.070886 -314.723721 
L 48.189873 -314.723721 
L 50.308861 -314.723721 
L 52.427848 -314.723721 
L 54.546835 -314.723721 
L 56.665823 -317.764515 
L 58.78481 -326.052027 
L 60.903797 -338.385342 
L 63.022785 -352.046146 
L 65.141772 -364.098908 
L 67.260759 -372.169626 
L 69.379747 -374.845084 
L 71.498734 -371.822121 
L 73.617722 -363.876244 
L 75.736709 -352.664812 
L 77.855696 -340.367991 
L 79.974684 -329.202601 
L 82.093671 -320.893031 
L 84.212658 -316.215327 
L 86.331646 -314.723721 
L 88.450633 -314.723721 
L 90.56962 -315.724343 
L 92.688608 -317.104094 
L 94.807595 -318.078018 
L 96.926582 -318.117354 
L 99.04557 -317.208561 
L 101.164557 -315.870212 
L 103.283544 -314.88299 
L 105.402532 -314.723721 
L 107.521519 -314.723721 
L 109.640506 -314.723721 
L 111.759494 -314.723721 
L 113.878481 -314.723721 
L 115.997468 -314.723721 
L 118.116456 -314.723721 
L 120.235443 -314.723721 
L 122.35443 -314.723721 
L 124.473418 -314.723721 
L 126.592405 -314.723721 
L 128.711392 -314.723721 
L 130.83038 -314.723721 
L 132.949367 -314.723721 
L 135.068354 -314.723721 
L 137.187342 -314.723721 
L 139.306329 -314.723721 
L 141.425316 -314.723721 
L 143.544304 -314.723721 
L 145.663291 -314.723721 
L 147.782278 -314.723721 
L 149.901266 -314.723721 
L 152.020253 -314.723721 
L 154.139241 -314.723721 
L 156.258228 -314.723721 
L 158.377215 -314.723721 
L 160.496203 -314.723721 
L 162.61519 -314.723721 
L 164.734177 -314.723721 
L 166.853165 -314.723721 
L 168.972152 -314.723721 
L 171.091139 -314.723721 
L 173.210127 -314.723721 
L 175.329114 -314.723721 
L 177.448101 -314.723721 
L 179.567089 -314.723721 
L 181.686076 -314.723721 
L 183.805063 -314.723721 
L 185.924051 -314.723721 
L 188.043038 -314.723721 
L 190.162025 -314.723721 
L 192.281013 -314.723721 
L 194.4 -314.723721 
L 194.4 -314.723721 
L 194.4 -314.723721 
L 192.281013 -314.723721 
L 190.162025 -314.723721 
L 188.043038 -314.723721 
L 185.924051 -314.723721 
L 183.805063 -314.723721 
L 181.686076 -314.723721 
L 179.567089 -314.723721 
L 177.448101 -314.723721 
L 175.329114 -314.723721 
L 173.210127 -314.723721 
L 171.091139 -314.723721 
L 168.972152 -314.723721 
L 166.853165 -314.723721 
L 164.734177 -314.723721 
L 162.61519 -314.723721 
L 160.496203 -314.723721 
L 158.377215 -314.723721 
L 156.258228 -314.723721 
L 154.139241 -314.723721 
L 152.020253 -314.723721 
L 149.901266 -314.723721 
L 147.782278 -314.723721 
L 145.663291 -314.723721 
L 143.544304 -314.723721 
L 141.425316 -314.723721 
L 139.306329 -314.723721 
L 137.187342 -314.723721 
L 135.068354 -314.723721 
L 132.949367 -314.723721 
L 130.83038 -314.723721 
L 128.711392 -314.723721 
L 126.592405 -314.723721 
L 124.473418 -314.723721 
L 122.35443 -314.723721 
L 120.235443 -314.723721 
L 118.116456 -314.723721 
L 115.997468 -314.723721 
L 113.878481 -314.723721 
L 111.759494 -314.723721 
L 109.640506 -314.723721 
L 107.521519 -314.723721 
L 105.402532 -314.723721 
L 103.283544 -314.723721 
L 101.164557 -314.723721 
L 99.04557 -314.723721 
L 96.926582 -314.723721 
L 94.807595 -314.723721 
L 92.688608 -314.723721 
L 90.56962 -314.723721 
L 88.450633 -314.723721 
L 86.331646 -314.723721 
L 84.212658 -314.723721 
L 82.093671 -314.723721 
L 79.974684 -314.723721 
L 77.855696 -314.723721 
L 75.736709 -314.723721 
L 73.617722 -314.723721 
L 71.498734 -314.723721 
L 69.379747 -314.723721 
L 67.260759 -314.723721 
L 65.141772 -314.723721 
L 63.022785 -314.723721 
L 60.903797 -314.723721 
L 58.78481 -314.723721 
L 56.665823 -314.723721 
L 54.546835 -314.723721 
L 52.427848 -314.723721 
L 50.308861 -314.723721 
L 48.189873 -314.723721 
L 46.070886 -314.723721 
L 43.951899 -314.723721 
L 41.832911 -314.723721 
L 39.713924 -314.723721 
L 37.594937 -314.723721 
L 35.475949 -314.723721 
L 33.356962 -314.723721 
L 31.237975 -314.723721 
L 29.118987 -314.723721 
L 27 -314.723721 
z
" id="m31122e6877" style="stroke:#008000;"/>
    </defs>
    <g clip-path="url(#p44b726b5d2)">
     <use style="fill:#008000;stroke:#008000;" x="0" xlink:href="#m31122e6877" y="576"/>
    </g>
   </g>
   <g id="matplotlib.axis_5"/>
   <g id="matplotlib.axis_6"/>
   <g id="line2d_3">
    <path clip-path="url(#p44b726b5d2)" d="M 27 261.276279 
L 29.118987 261.276279 
L 31.237975 261.276279 
L 33.356962 261.276279 
L 35.475949 261.276279 
L 37.594937 261.276279 
L 39.713924 261.276279 
L 41.832911 261.276279 
L 43.951899 261.276279 
L 46.070886 261.276279 
L 48.189873 261.276279 
L 50.308861 261.276279 
L 52.427848 261.276279 
L 54.546835 261.276279 
L 56.665823 258.235485 
L 58.78481 249.947973 
L 60.903797 237.614658 
L 63.022785 223.953854 
L 65.141772 211.901092 
L 67.260759 203.830374 
L 69.379747 201.154916 
L 71.498734 204.177879 
L 73.617722 212.123756 
L 75.736709 223.335188 
L 77.855696 235.632009 
L 79.974684 246.797399 
L 82.093671 255.106969 
L 84.212658 259.784673 
L 86.331646 261.276279 
L 88.450633 261.276279 
L 90.56962 260.275657 
L 92.688608 258.895906 
L 94.807595 257.921982 
L 96.926582 257.882646 
L 99.04557 258.791439 
L 101.164557 260.129788 
L 103.283544 261.11701 
L 105.402532 261.276279 
L 107.521519 261.276279 
L 109.640506 261.276279 
L 111.759494 261.276279 
L 113.878481 261.276279 
L 115.997468 261.276279 
L 118.116456 261.276279 
L 120.235443 261.276279 
L 122.35443 261.276279 
L 124.473418 261.276279 
L 126.592405 261.276279 
L 128.711392 261.276279 
L 130.83038 261.276279 
L 132.949367 261.276279 
L 135.068354 261.276279 
L 137.187342 261.276279 
L 139.306329 261.276279 
L 141.425316 261.276279 
L 143.544304 261.276279 
L 145.663291 261.276279 
L 147.782278 261.276279 
L 149.901266 261.276279 
L 152.020253 261.276279 
L 154.139241 261.276279 
L 156.258228 261.276279 
L 158.377215 261.276279 
L 160.496203 261.276279 
L 162.61519 261.276279 
L 164.734177 261.276279 
L 166.853165 261.276279 
L 168.972152 261.276279 
L 171.091139 261.276279 
L 173.210127 261.276279 
L 175.329114 261.276279 
L 177.448101 261.276279 
L 179.567089 261.276279 
L 181.686076 261.276279 
L 183.805063 261.276279 
L 185.924051 261.276279 
L 188.043038 261.276279 
L 190.162025 261.276279 
L 192.281013 261.276279 
L 194.4 261.276279 
" style="fill:none;stroke:#000000;stroke-linecap:square;"/>
   </g>
   <g id="text_3">
    <!-- 0.75 -->
    <g transform="translate(4.734375 261.276279)scale(0.1 -0.1)">
     <defs>
      <path d="M 8.203125 72.90625 
L 55.078125 72.90625 
L 55.078125 68.703125 
L 28.609375 0 
L 18.3125 0 
L 43.21875 64.59375 
L 8.203125 64.59375 
z
" id="DejaVuSans-55"/>
     </defs>
     <use xlink:href="#DejaVuSans-48"/>
     <use x="63.623047" xlink:href="#DejaVuSans-46"/>
     <use x="95.410156" xlink:href="#DejaVuSans-55"/>
     <use x="159.033203" xlink:href="#DejaVuSans-53"/>
    </g>
   </g>
  </g>
  <g id="axes_4">
   <g id="patch_5">
    <path d="M 27 291.616744 
L 194.4 291.616744 
L 194.4 190.48186 
L 27 190.48186 
z
" style="fill:none;opacity:0;"/>
   </g>
   <g id="PolyCollection_4">
    <defs>
     <path d="M 27 -284.383256 
L 27 -289.216942 
L 29.118987 -296.06421 
L 31.237975 -302.356704 
L 33.356962 -306.014528 
L 35.475949 -305.782483 
L 37.594937 -301.602204 
L 39.713924 -294.851371 
L 41.832911 -288.15643 
L 43.951899 -284.383256 
L 46.070886 -284.383256 
L 48.189873 -284.383256 
L 50.308861 -284.383256 
L 52.427848 -284.383256 
L 54.546835 -284.383256 
L 56.665823 -284.383256 
L 58.78481 -284.383256 
L 60.903797 -284.383256 
L 63.022785 -284.383256 
L 65.141772 -284.383256 
L 67.260759 -284.383256 
L 69.379747 -284.383256 
L 71.498734 -284.383256 
L 73.617722 -284.383256 
L 75.736709 -285.057214 
L 77.855696 -297.464508 
L 79.974684 -317.690094 
L 82.093671 -335.54085 
L 84.212658 -341.774776 
L 86.331646 -333.034422 
L 88.450633 -313.710509 
L 90.56962 -294.09383 
L 92.688608 -284.383256 
L 94.807595 -284.383256 
L 96.926582 -284.383256 
L 99.04557 -284.383256 
L 101.164557 -284.383256 
L 103.283544 -284.383256 
L 105.402532 -284.383256 
L 107.521519 -284.383256 
L 109.640506 -284.383256 
L 111.759494 -284.383256 
L 113.878481 -284.383256 
L 115.997468 -284.383256 
L 118.116456 -284.383256 
L 120.235443 -284.383256 
L 122.35443 -284.383256 
L 124.473418 -284.383256 
L 126.592405 -284.383256 
L 128.711392 -284.383256 
L 130.83038 -284.383256 
L 132.949367 -284.383256 
L 135.068354 -284.383256 
L 137.187342 -284.383256 
L 139.306329 -284.383256 
L 141.425316 -284.383256 
L 143.544304 -284.383256 
L 145.663291 -284.383256 
L 147.782278 -284.383256 
L 149.901266 -284.383256 
L 152.020253 -284.383256 
L 154.139241 -284.383256 
L 156.258228 -284.383256 
L 158.377215 -284.383256 
L 160.496203 -284.383256 
L 162.61519 -284.383256 
L 164.734177 -284.383256 
L 166.853165 -284.383256 
L 168.972152 -284.383256 
L 171.091139 -284.383256 
L 173.210127 -284.383256 
L 175.329114 -284.383256 
L 177.448101 -284.383256 
L 179.567089 -284.383256 
L 181.686076 -284.383256 
L 183.805063 -284.383256 
L 185.924051 -284.383256 
L 188.043038 -284.383256 
L 190.162025 -284.383256 
L 192.281013 -284.383256 
L 194.4 -284.383256 
L 194.4 -284.383256 
L 194.4 -284.383256 
L 192.281013 -284.383256 
L 190.162025 -284.383256 
L 188.043038 -284.383256 
L 185.924051 -284.383256 
L 183.805063 -284.383256 
L 181.686076 -284.383256 
L 179.567089 -284.383256 
L 177.448101 -284.383256 
L 175.329114 -284.383256 
L 173.210127 -284.383256 
L 171.091139 -284.383256 
L 168.972152 -284.383256 
L 166.853165 -284.383256 
L 164.734177 -284.383256 
L 162.61519 -284.383256 
L 160.496203 -284.383256 
L 158.377215 -284.383256 
L 156.258228 -284.383256 
L 154.139241 -284.383256 
L 152.020253 -284.383256 
L 149.901266 -284.383256 
L 147.782278 -284.383256 
L 145.663291 -284.383256 
L 143.544304 -284.383256 
L 141.425316 -284.383256 
L 139.306329 -284.383256 
L 137.187342 -284.383256 
L 135.068354 -284.383256 
L 132.949367 -284.383256 
L 130.83038 -284.383256 
L 128.711392 -284.383256 
L 126.592405 -284.383256 
L 124.473418 -284.383256 
L 122.35443 -284.383256 
L 120.235443 -284.383256 
L 118.116456 -284.383256 
L 115.997468 -284.383256 
L 113.878481 -284.383256 
L 111.759494 -284.383256 
L 109.640506 -284.383256 
L 107.521519 -284.383256 
L 105.402532 -284.383256 
L 103.283544 -284.383256 
L 101.164557 -284.383256 
L 99.04557 -284.383256 
L 96.926582 -284.383256 
L 94.807595 -284.383256 
L 92.688608 -284.383256 
L 90.56962 -284.383256 
L 88.450633 -284.383256 
L 86.331646 -284.383256 
L 84.212658 -284.383256 
L 82.093671 -284.383256 
L 79.974684 -284.383256 
L 77.855696 -284.383256 
L 75.736709 -284.383256 
L 73.617722 -284.383256 
L 71.498734 -284.383256 
L 69.379747 -284.383256 
L 67.260759 -284.383256 
L 65.141772 -284.383256 
L 63.022785 -284.383256 
L 60.903797 -284.383256 
L 58.78481 -284.383256 
L 56.665823 -284.383256 
L 54.546835 -284.383256 
L 52.427848 -284.383256 
L 50.308861 -284.383256 
L 48.189873 -284.383256 
L 46.070886 -284.383256 
L 43.951899 -284.383256 
L 41.832911 -284.383256 
L 39.713924 -284.383256 
L 37.594937 -284.383256 
L 35.475949 -284.383256 
L 33.356962 -284.383256 
L 31.237975 -284.383256 
L 29.118987 -284.383256 
L 27 -284.383256 
z
" id="m662db4899d" style="stroke:#008000;"/>
    </defs>
    <g clip-path="url(#pf83f52dbac)">
     <use style="fill:#008000;stroke:#008000;" x="0" xlink:href="#m662db4899d" y="576"/>
    </g>
   </g>
   <g id="matplotlib.axis_7"/>
   <g id="matplotlib.axis_8"/>
   <g id="line2d_4">
    <path clip-path="url(#pf83f52dbac)" d="M 27 286.783058 
L 29.118987 279.93579 
L 31.237975 273.643296 
L 33.356962 269.985472 
L 35.475949 270.217517 
L 37.594937 274.397796 
L 39.713924 281.148629 
L 41.832911 287.84357 
L 43.951899 291.616744 
L 46.070886 291.616744 
L 48.189873 291.616744 
L 50.308861 291.616744 
L 52.427848 291.616744 
L 54.546835 291.616744 
L 56.665823 291.616744 
L 58.78481 291.616744 
L 60.903797 291.616744 
L 63.022785 291.616744 
L 65.141772 291.616744 
L 67.260759 291.616744 
L 69.379747 291.616744 
L 71.498734 291.616744 
L 73.617722 291.616744 
L 75.736709 290.942786 
L 77.855696 278.535492 
L 79.974684 258.309906 
L 82.093671 240.45915 
L 84.212658 234.225224 
L 86.331646 242.965578 
L 88.450633 262.289491 
L 90.56962 281.90617 
L 92.688608 291.616744 
L 94.807595 291.616744 
L 96.926582 291.616744 
L 99.04557 291.616744 
L 101.164557 291.616744 
L 103.283544 291.616744 
L 105.402532 291.616744 
L 107.521519 291.616744 
L 109.640506 291.616744 
L 111.759494 291.616744 
L 113.878481 291.616744 
L 115.997468 291.616744 
L 118.116456 291.616744 
L 120.235443 291.616744 
L 122.35443 291.616744 
L 124.473418 291.616744 
L 126.592405 291.616744 
L 128.711392 291.616744 
L 130.83038 291.616744 
L 132.949367 291.616744 
L 135.068354 291.616744 
L 137.187342 291.616744 
L 139.306329 291.616744 
L 141.425316 291.616744 
L 143.544304 291.616744 
L 145.663291 291.616744 
L 147.782278 291.616744 
L 149.901266 291.616744 
L 152.020253 291.616744 
L 154.139241 291.616744 
L 156.258228 291.616744 
L 158.377215 291.616744 
L 160.496203 291.616744 
L 162.61519 291.616744 
L 164.734177 291.616744 
L 166.853165 291.616744 
L 168.972152 291.616744 
L 171.091139 291.616744 
L 173.210127 291.616744 
L 175.329114 291.616744 
L 177.448101 291.616744 
L 179.567089 291.616744 
L 181.686076 291.616744 
L 183.805063 291.616744 
L 185.924051 291.616744 
L 188.043038 291.616744 
L 190.162025 291.616744 
L 192.281013 291.616744 
L 194.4 291.616744 
" style="fill:none;stroke:#000000;stroke-linecap:square;"/>
   </g>
   <g id="text_4">
    <!-- 1.00 -->
    <g transform="translate(4.734375 291.616744)scale(0.1 -0.1)">
     <defs>
      <path d="M 12.40625 8.296875 
L 28.515625 8.296875 
L 28.515625 63.921875 
L 10.984375 60.40625 
L 10.984375 69.390625 
L 28.421875 72.90625 
L 38.28125 72.90625 
L 38.28125 8.296875 
L 54.390625 8.296875 
L 54.390625 0 
L 12.40625 0 
z
" id="DejaVuSans-49"/>
     </defs>
     <use xlink:href="#DejaVuSans-49"/>
     <use x="63.623047" xlink:href="#DejaVuSans-46"/>
     <use x="95.410156" xlink:href="#DejaVuSans-48"/>
     <use x="159.033203" xlink:href="#DejaVuSans-48"/>
    </g>
   </g>
  </g>
  <g id="axes_5">
   <g id="patch_6">
    <path d="M 27 321.957209 
L 194.4 321.957209 
L 194.4 220.822326 
L 27 220.822326 
z
" style="fill:none;opacity:0;"/>
   </g>
   <g id="PolyCollection_5">
    <defs>
     <path d="M 27 -254.042791 
L 27 -271.532986 
L 29.118987 -298.849693 
L 31.237975 -328.689223 
L 33.356962 -354.457387 
L 35.475949 -370.794194 
L 37.594937 -374.237015 
L 39.713924 -363.888041 
L 41.832911 -341.847952 
L 43.951899 -313.114319 
L 46.070886 -284.663155 
L 48.189873 -263.548579 
L 50.308861 -254.042791 
L 52.427848 -254.042791 
L 54.546835 -254.042791 
L 56.665823 -254.042791 
L 58.78481 -254.042791 
L 60.903797 -254.042791 
L 63.022785 -254.042791 
L 65.141772 -254.042791 
L 67.260759 -254.042791 
L 69.379747 -254.042791 
L 71.498734 -254.244857 
L 73.617722 -259.988076 
L 75.736709 -271.160402 
L 77.855696 -284.402043 
L 79.974684 -295.080595 
L 82.093671 -299.124669 
L 84.212658 -294.624975 
L 86.331646 -282.887484 
L 88.450633 -268.445042 
L 90.56962 -257.464527 
L 92.688608 -254.042791 
L 94.807595 -254.042791 
L 96.926582 -254.042791 
L 99.04557 -254.042791 
L 101.164557 -254.042791 
L 103.283544 -254.042791 
L 105.402532 -254.042791 
L 107.521519 -254.042791 
L 109.640506 -254.042791 
L 111.759494 -254.042791 
L 113.878481 -254.042791 
L 115.997468 -254.042791 
L 118.116456 -254.042791 
L 120.235443 -254.042791 
L 122.35443 -254.042791 
L 124.473418 -254.042791 
L 126.592405 -254.042791 
L 128.711392 -254.042791 
L 130.83038 -254.042791 
L 132.949367 -254.042791 
L 135.068354 -254.042791 
L 137.187342 -254.042791 
L 139.306329 -254.042791 
L 141.425316 -254.042791 
L 143.544304 -254.042791 
L 145.663291 -254.042791 
L 147.782278 -254.042791 
L 149.901266 -254.042791 
L 152.020253 -254.042791 
L 154.139241 -254.042791 
L 156.258228 -254.042791 
L 158.377215 -254.042791 
L 160.496203 -254.042791 
L 162.61519 -254.042791 
L 164.734177 -254.042791 
L 166.853165 -254.042791 
L 168.972152 -254.042791 
L 171.091139 -254.042791 
L 173.210127 -254.042791 
L 175.329114 -254.042791 
L 177.448101 -254.042791 
L 179.567089 -254.042791 
L 181.686076 -254.042791 
L 183.805063 -254.042791 
L 185.924051 -254.042791 
L 188.043038 -254.042791 
L 190.162025 -254.042791 
L 192.281013 -254.042791 
L 194.4 -254.042791 
L 194.4 -254.042791 
L 194.4 -254.042791 
L 192.281013 -254.042791 
L 190.162025 -254.042791 
L 188.043038 -254.042791 
L 185.924051 -254.042791 
L 183.805063 -254.042791 
L 181.686076 -254.042791 
L 179.567089 -254.042791 
L 177.448101 -254.042791 
L 175.329114 -254.042791 
L 173.210127 -254.042791 
L 171.091139 -254.042791 
L 168.972152 -254.042791 
L 166.853165 -254.042791 
L 164.734177 -254.042791 
L 162.61519 -254.042791 
L 160.496203 -254.042791 
L 158.377215 -254.042791 
L 156.258228 -254.042791 
L 154.139241 -254.042791 
L 152.020253 -254.042791 
L 149.901266 -254.042791 
L 147.782278 -254.042791 
L 145.663291 -254.042791 
L 143.544304 -254.042791 
L 141.425316 -254.042791 
L 139.306329 -254.042791 
L 137.187342 -254.042791 
L 135.068354 -254.042791 
L 132.949367 -254.042791 
L 130.83038 -254.042791 
L 128.711392 -254.042791 
L 126.592405 -254.042791 
L 124.473418 -254.042791 
L 122.35443 -254.042791 
L 120.235443 -254.042791 
L 118.116456 -254.042791 
L 115.997468 -254.042791 
L 113.878481 -254.042791 
L 111.759494 -254.042791 
L 109.640506 -254.042791 
L 107.521519 -254.042791 
L 105.402532 -254.042791 
L 103.283544 -254.042791 
L 101.164557 -254.042791 
L 99.04557 -254.042791 
L 96.926582 -254.042791 
L 94.807595 -254.042791 
L 92.688608 -254.042791 
L 90.56962 -254.042791 
L 88.450633 -254.042791 
L 86.331646 -254.042791 
L 84.212658 -254.042791 
L 82.093671 -254.042791 
L 79.974684 -254.042791 
L 77.855696 -254.042791 
L 75.736709 -254.042791 
L 73.617722 -254.042791 
L 71.498734 -254.042791 
L 69.379747 -254.042791 
L 67.260759 -254.042791 
L 65.141772 -254.042791 
L 63.022785 -254.042791 
L 60.903797 -254.042791 
L 58.78481 -254.042791 
L 56.665823 -254.042791 
L 54.546835 -254.042791 
L 52.427848 -254.042791 
L 50.308861 -254.042791 
L 48.189873 -254.042791 
L 46.070886 -254.042791 
L 43.951899 -254.042791 
L 41.832911 -254.042791 
L 39.713924 -254.042791 
L 37.594937 -254.042791 
L 35.475949 -254.042791 
L 33.356962 -254.042791 
L 31.237975 -254.042791 
L 29.118987 -254.042791 
L 27 -254.042791 
z
" id="mfbdac1cb1d" style="stroke:#008000;"/>
    </defs>
    <g clip-path="url(#pbe1dd7605b)">
     <use style="fill:#008000;stroke:#008000;" x="0" xlink:href="#mfbdac1cb1d" y="576"/>
    </g>
   </g>
   <g id="matplotlib.axis_9"/>
   <g id="matplotlib.axis_10"/>
   <g id="line2d_5">
    <path clip-path="url(#pbe1dd7605b)" d="M 27 304.467014 
L 29.118987 277.150307 
L 31.237975 247.310777 
L 33.356962 221.542613 
L 35.475949 205.205806 
L 37.594937 201.762985 
L 39.713924 212.111959 
L 41.832911 234.152048 
L 43.951899 262.885681 
L 46.070886 291.336845 
L 48.189873 312.451421 
L 50.308861 321.957209 
L 52.427848 321.957209 
L 54.546835 321.957209 
L 56.665823 321.957209 
L 58.78481 321.957209 
L 60.903797 321.957209 
L 63.022785 321.957209 
L 65.141772 321.957209 
L 67.260759 321.957209 
L 69.379747 321.957209 
L 71.498734 321.755143 
L 73.617722 316.011924 
L 75.736709 304.839598 
L 77.855696 291.597957 
L 79.974684 280.919405 
L 82.093671 276.875331 
L 84.212658 281.375025 
L 86.331646 293.112516 
L 88.450633 307.554958 
L 90.56962 318.535473 
L 92.688608 321.957209 
L 94.807595 321.957209 
L 96.926582 321.957209 
L 99.04557 321.957209 
L 101.164557 321.957209 
L 103.283544 321.957209 
L 105.402532 321.957209 
L 107.521519 321.957209 
L 109.640506 321.957209 
L 111.759494 321.957209 
L 113.878481 321.957209 
L 115.997468 321.957209 
L 118.116456 321.957209 
L 120.235443 321.957209 
L 122.35443 321.957209 
L 124.473418 321.957209 
L 126.592405 321.957209 
L 128.711392 321.957209 
L 130.83038 321.957209 
L 132.949367 321.957209 
L 135.068354 321.957209 
L 137.187342 321.957209 
L 139.306329 321.957209 
L 141.425316 321.957209 
L 143.544304 321.957209 
L 145.663291 321.957209 
L 147.782278 321.957209 
L 149.901266 321.957209 
L 152.020253 321.957209 
L 154.139241 321.957209 
L 156.258228 321.957209 
L 158.377215 321.957209 
L 160.496203 321.957209 
L 162.61519 321.957209 
L 164.734177 321.957209 
L 166.853165 321.957209 
L 168.972152 321.957209 
L 171.091139 321.957209 
L 173.210127 321.957209 
L 175.329114 321.957209 
L 177.448101 321.957209 
L 179.567089 321.957209 
L 181.686076 321.957209 
L 183.805063 321.957209 
L 185.924051 321.957209 
L 188.043038 321.957209 
L 190.162025 321.957209 
L 192.281013 321.957209 
L 194.4 321.957209 
" style="fill:none;stroke:#000000;stroke-linecap:square;"/>
   </g>
   <g id="text_5">
    <!-- 1.25 -->
    <g transform="translate(4.734375 321.957209)scale(0.1 -0.1)">
     <use xlink:href="#DejaVuSans-49"/>
     <use x="63.623047" xlink:href="#DejaVuSans-46"/>
     <use x="95.410156" xlink:href="#DejaVuSans-50"/>
     <use x="159.033203" xlink:href="#DejaVuSans-53"/>
    </g>
   </g>
  </g>
  <g id="axes_6">
   <g id="patch_7">
    <path d="M 27 352.297674 
L 194.4 352.297674 
L 194.4 251.162791 
L 27 251.162791 
z
" style="fill:none;opacity:0;"/>
   </g>
   <g id="PolyCollection_6">
    <defs>
     <path d="M 27 -223.702326 
L 27 -223.825008 
L 29.118987 -223.981277 
L 31.237975 -224.094052 
L 33.356962 -224.109607 
L 35.475949 -224.013364 
L 37.594937 -223.845377 
L 39.713924 -223.702326 
L 41.832911 -223.702326 
L 43.951899 -223.942823 
L 46.070886 -225.554664 
L 48.189873 -229.160875 
L 50.308861 -234.649517 
L 52.427848 -241.085532 
L 54.546835 -246.877339 
L 56.665823 -250.23688 
L 58.78481 -249.840827 
L 60.903797 -245.468658 
L 63.022785 -238.32444 
L 65.141772 -230.786132 
L 67.260759 -225.469635 
L 69.379747 -223.702326 
L 71.498734 -223.702326 
L 73.617722 -223.702326 
L 75.736709 -223.702326 
L 77.855696 -225.113411 
L 79.974684 -231.026868 
L 82.093671 -240.341371 
L 84.212658 -249.67311 
L 86.331646 -255.338084 
L 88.450633 -254.999011 
L 90.56962 -248.646344 
L 92.688608 -238.702564 
L 94.807595 -229.167749 
L 96.926582 -223.836937 
L 99.04557 -223.702326 
L 101.164557 -223.702326 
L 103.283544 -223.702326 
L 105.402532 -223.702326 
L 107.521519 -223.702326 
L 109.640506 -223.702326 
L 111.759494 -223.702326 
L 113.878481 -223.702326 
L 115.997468 -223.702326 
L 118.116456 -223.702326 
L 120.235443 -223.702326 
L 122.35443 -223.702326 
L 124.473418 -223.702326 
L 126.592405 -223.702326 
L 128.711392 -223.702326 
L 130.83038 -223.702326 
L 132.949367 -223.702326 
L 135.068354 -223.702326 
L 137.187342 -223.702326 
L 139.306329 -223.702326 
L 141.425316 -223.702326 
L 143.544304 -223.702326 
L 145.663291 -223.702326 
L 147.782278 -223.702326 
L 149.901266 -223.702326 
L 152.020253 -223.702326 
L 154.139241 -223.702326 
L 156.258228 -223.702326 
L 158.377215 -223.702326 
L 160.496203 -223.702326 
L 162.61519 -223.702326 
L 164.734177 -223.702326 
L 166.853165 -223.702326 
L 168.972152 -223.702326 
L 171.091139 -223.702326 
L 173.210127 -223.702326 
L 175.329114 -223.702326 
L 177.448101 -223.702326 
L 179.567089 -223.702326 
L 181.686076 -223.702326 
L 183.805063 -223.702326 
L 185.924051 -223.702326 
L 188.043038 -223.702326 
L 190.162025 -223.702326 
L 192.281013 -223.702326 
L 194.4 -223.702326 
L 194.4 -223.702326 
L 194.4 -223.702326 
L 192.281013 -223.702326 
L 190.162025 -223.702326 
L 188.043038 -223.702326 
L 185.924051 -223.702326 
L 183.805063 -223.702326 
L 181.686076 -223.702326 
L 179.567089 -223.702326 
L 177.448101 -223.702326 
L 175.329114 -223.702326 
L 173.210127 -223.702326 
L 171.091139 -223.702326 
L 168.972152 -223.702326 
L 166.853165 -223.702326 
L 164.734177 -223.702326 
L 162.61519 -223.702326 
L 160.496203 -223.702326 
L 158.377215 -223.702326 
L 156.258228 -223.702326 
L 154.139241 -223.702326 
L 152.020253 -223.702326 
L 149.901266 -223.702326 
L 147.782278 -223.702326 
L 145.663291 -223.702326 
L 143.544304 -223.702326 
L 141.425316 -223.702326 
L 139.306329 -223.702326 
L 137.187342 -223.702326 
L 135.068354 -223.702326 
L 132.949367 -223.702326 
L 130.83038 -223.702326 
L 128.711392 -223.702326 
L 126.592405 -223.702326 
L 124.473418 -223.702326 
L 122.35443 -223.702326 
L 120.235443 -223.702326 
L 118.116456 -223.702326 
L 115.997468 -223.702326 
L 113.878481 -223.702326 
L 111.759494 -223.702326 
L 109.640506 -223.702326 
L 107.521519 -223.702326 
L 105.402532 -223.702326 
L 103.283544 -223.702326 
L 101.164557 -223.702326 
L 99.04557 -223.702326 
L 96.926582 -223.702326 
L 94.807595 -223.702326 
L 92.688608 -223.702326 
L 90.56962 -223.702326 
L 88.450633 -223.702326 
L 86.331646 -223.702326 
L 84.212658 -223.702326 
L 82.093671 -223.702326 
L 79.974684 -223.702326 
L 77.855696 -223.702326 
L 75.736709 -223.702326 
L 73.617722 -223.702326 
L 71.498734 -223.702326 
L 69.379747 -223.702326 
L 67.260759 -223.702326 
L 65.141772 -223.702326 
L 63.022785 -223.702326 
L 60.903797 -223.702326 
L 58.78481 -223.702326 
L 56.665823 -223.702326 
L 54.546835 -223.702326 
L 52.427848 -223.702326 
L 50.308861 -223.702326 
L 48.189873 -223.702326 
L 46.070886 -223.702326 
L 43.951899 -223.702326 
L 41.832911 -223.702326 
L 39.713924 -223.702326 
L 37.594937 -223.702326 
L 35.475949 -223.702326 
L 33.356962 -223.702326 
L 31.237975 -223.702326 
L 29.118987 -223.702326 
L 27 -223.702326 
z
" id="m2d59a434ab" style="stroke:#008000;"/>
    </defs>
    <g clip-path="url(#pb6ca8ae214)">
     <use style="fill:#008000;stroke:#008000;" x="0" xlink:href="#m2d59a434ab" y="576"/>
    </g>
   </g>
   <g id="matplotlib.axis_11"/>
   <g id="matplotlib.axis_12"/>
   <g id="line2d_6">
    <path clip-path="url(#pb6ca8ae214)" d="M 27 352.174992 
L 29.118987 352.018723 
L 31.237975 351.905948 
L 33.356962 351.890393 
L 35.475949 351.986636 
L 37.594937 352.154623 
L 39.713924 352.297674 
L 41.832911 352.297674 
L 43.951899 352.057177 
L 46.070886 350.445336 
L 48.189873 346.839125 
L 50.308861 341.350483 
L 52.427848 334.914468 
L 54.546835 329.122661 
L 56.665823 325.76312 
L 58.78481 326.159173 
L 60.903797 330.531342 
L 63.022785 337.67556 
L 65.141772 345.213868 
L 67.260759 350.530365 
L 69.379747 352.297674 
L 71.498734 352.297674 
L 73.617722 352.297674 
L 75.736709 352.297674 
L 77.855696 350.886589 
L 79.974684 344.973132 
L 82.093671 335.658629 
L 84.212658 326.32689 
L 86.331646 320.661916 
L 88.450633 321.000989 
L 90.56962 327.353656 
L 92.688608 337.297436 
L 94.807595 346.832251 
L 96.926582 352.163063 
L 99.04557 352.297674 
L 101.164557 352.297674 
L 103.283544 352.297674 
L 105.402532 352.297674 
L 107.521519 352.297674 
L 109.640506 352.297674 
L 111.759494 352.297674 
L 113.878481 352.297674 
L 115.997468 352.297674 
L 118.116456 352.297674 
L 120.235443 352.297674 
L 122.35443 352.297674 
L 124.473418 352.297674 
L 126.592405 352.297674 
L 128.711392 352.297674 
L 130.83038 352.297674 
L 132.949367 352.297674 
L 135.068354 352.297674 
L 137.187342 352.297674 
L 139.306329 352.297674 
L 141.425316 352.297674 
L 143.544304 352.297674 
L 145.663291 352.297674 
L 147.782278 352.297674 
L 149.901266 352.297674 
L 152.020253 352.297674 
L 154.139241 352.297674 
L 156.258228 352.297674 
L 158.377215 352.297674 
L 160.496203 352.297674 
L 162.61519 352.297674 
L 164.734177 352.297674 
L 166.853165 352.297674 
L 168.972152 352.297674 
L 171.091139 352.297674 
L 173.210127 352.297674 
L 175.329114 352.297674 
L 177.448101 352.297674 
L 179.567089 352.297674 
L 181.686076 352.297674 
L 183.805063 352.297674 
L 185.924051 352.297674 
L 188.043038 352.297674 
L 190.162025 352.297674 
L 192.281013 352.297674 
L 194.4 352.297674 
" style="fill:none;stroke:#000000;stroke-linecap:square;"/>
   </g>
   <g id="text_6">
    <!-- 1.50 -->
    <g transform="translate(4.734375 352.297674)scale(0.1 -0.1)">
     <use xlink:href="#DejaVuSans-49"/>
     <use x="63.623047" xlink:href="#DejaVuSans-46"/>
     <use x="95.410156" xlink:href="#DejaVuSans-53"/>
     <use x="159.033203" xlink:href="#DejaVuSans-48"/>
    </g>
   </g>
  </g>
  <g id="axes_7">
   <g id="patch_8">
    <path d="M 27 382.63814 
L 194.4 382.63814 
L 194.4 281.503256 
L 27 281.503256 
z
" style="fill:none;opacity:0;"/>
   </g>
   <g id="PolyCollection_7">
    <defs>
     <path d="M 27 -193.36186 
L 27 -193.36186 
L 29.118987 -193.36186 
L 31.237975 -193.36186 
L 33.356962 -193.36186 
L 35.475949 -193.36186 
L 37.594937 -193.36186 
L 39.713924 -193.36186 
L 41.832911 -193.36186 
L 43.951899 -193.36186 
L 46.070886 -193.36186 
L 48.189873 -193.36186 
L 50.308861 -193.36186 
L 52.427848 -193.36186 
L 54.546835 -193.36186 
L 56.665823 -193.36186 
L 58.78481 -193.36186 
L 60.903797 -194.52787 
L 63.022785 -197.709485 
L 65.141772 -201.780966 
L 67.260759 -205.276723 
L 69.379747 -207.292828 
L 71.498734 -207.805395 
L 73.617722 -207.568543 
L 75.736709 -207.730671 
L 77.855696 -209.302905 
L 79.974684 -212.642319 
L 82.093671 -217.140074 
L 84.212658 -221.279019 
L 86.331646 -223.120666 
L 88.450633 -221.118339 
L 90.56962 -214.984891 
L 92.688608 -206.226116 
L 94.807595 -197.918251 
L 96.926582 -193.36186 
L 99.04557 -193.36186 
L 101.164557 -193.36186 
L 103.283544 -193.36186 
L 105.402532 -193.36186 
L 107.521519 -193.36186 
L 109.640506 -193.36186 
L 111.759494 -193.36186 
L 113.878481 -193.36186 
L 115.997468 -193.36186 
L 118.116456 -193.36186 
L 120.235443 -193.36186 
L 122.35443 -193.36186 
L 124.473418 -193.36186 
L 126.592405 -193.36186 
L 128.711392 -193.36186 
L 130.83038 -193.36186 
L 132.949367 -193.36186 
L 135.068354 -193.36186 
L 137.187342 -193.36186 
L 139.306329 -193.36186 
L 141.425316 -193.36186 
L 143.544304 -193.36186 
L 145.663291 -193.36186 
L 147.782278 -193.36186 
L 149.901266 -193.36186 
L 152.020253 -193.36186 
L 154.139241 -193.36186 
L 156.258228 -193.36186 
L 158.377215 -193.36186 
L 160.496203 -193.36186 
L 162.61519 -193.36186 
L 164.734177 -193.36186 
L 166.853165 -193.36186 
L 168.972152 -193.36186 
L 171.091139 -193.36186 
L 173.210127 -193.36186 
L 175.329114 -193.36186 
L 177.448101 -193.36186 
L 179.567089 -193.36186 
L 181.686076 -193.36186 
L 183.805063 -193.36186 
L 185.924051 -193.36186 
L 188.043038 -193.36186 
L 190.162025 -193.36186 
L 192.281013 -193.36186 
L 194.4 -193.36186 
L 194.4 -193.36186 
L 194.4 -193.36186 
L 192.281013 -193.36186 
L 190.162025 -193.36186 
L 188.043038 -193.36186 
L 185.924051 -193.36186 
L 183.805063 -193.36186 
L 181.686076 -193.36186 
L 179.567089 -193.36186 
L 177.448101 -193.36186 
L 175.329114 -193.36186 
L 173.210127 -193.36186 
L 171.091139 -193.36186 
L 168.972152 -193.36186 
L 166.853165 -193.36186 
L 164.734177 -193.36186 
L 162.61519 -193.36186 
L 160.496203 -193.36186 
L 158.377215 -193.36186 
L 156.258228 -193.36186 
L 154.139241 -193.36186 
L 152.020253 -193.36186 
L 149.901266 -193.36186 
L 147.782278 -193.36186 
L 145.663291 -193.36186 
L 143.544304 -193.36186 
L 141.425316 -193.36186 
L 139.306329 -193.36186 
L 137.187342 -193.36186 
L 135.068354 -193.36186 
L 132.949367 -193.36186 
L 130.83038 -193.36186 
L 128.711392 -193.36186 
L 126.592405 -193.36186 
L 124.473418 -193.36186 
L 122.35443 -193.36186 
L 120.235443 -193.36186 
L 118.116456 -193.36186 
L 115.997468 -193.36186 
L 113.878481 -193.36186 
L 111.759494 -193.36186 
L 109.640506 -193.36186 
L 107.521519 -193.36186 
L 105.402532 -193.36186 
L 103.283544 -193.36186 
L 101.164557 -193.36186 
L 99.04557 -193.36186 
L 96.926582 -193.36186 
L 94.807595 -193.36186 
L 92.688608 -193.36186 
L 90.56962 -193.36186 
L 88.450633 -193.36186 
L 86.331646 -193.36186 
L 84.212658 -193.36186 
L 82.093671 -193.36186 
L 79.974684 -193.36186 
L 77.855696 -193.36186 
L 75.736709 -193.36186 
L 73.617722 -193.36186 
L 71.498734 -193.36186 
L 69.379747 -193.36186 
L 67.260759 -193.36186 
L 65.141772 -193.36186 
L 63.022785 -193.36186 
L 60.903797 -193.36186 
L 58.78481 -193.36186 
L 56.665823 -193.36186 
L 54.546835 -193.36186 
L 52.427848 -193.36186 
L 50.308861 -193.36186 
L 48.189873 -193.36186 
L 46.070886 -193.36186 
L 43.951899 -193.36186 
L 41.832911 -193.36186 
L 39.713924 -193.36186 
L 37.594937 -193.36186 
L 35.475949 -193.36186 
L 33.356962 -193.36186 
L 31.237975 -193.36186 
L 29.118987 -193.36186 
L 27 -193.36186 
z
" id="m755ff5477f" style="stroke:#008000;"/>
    </defs>
    <g clip-path="url(#pca2e10f8fe)">
     <use style="fill:#008000;stroke:#008000;" x="0" xlink:href="#m755ff5477f" y="576"/>
    </g>
   </g>
   <g id="matplotlib.axis_13"/>
   <g id="matplotlib.axis_14"/>
   <g id="line2d_7">
    <path clip-path="url(#pca2e10f8fe)" d="M 27 382.63814 
L 29.118987 382.63814 
L 31.237975 382.63814 
L 33.356962 382.63814 
L 35.475949 382.63814 
L 37.594937 382.63814 
L 39.713924 382.63814 
L 41.832911 382.63814 
L 43.951899 382.63814 
L 46.070886 382.63814 
L 48.189873 382.63814 
L 50.308861 382.63814 
L 52.427848 382.63814 
L 54.546835 382.63814 
L 56.665823 382.63814 
L 58.78481 382.63814 
L 60.903797 381.47213 
L 63.022785 378.290515 
L 65.141772 374.219034 
L 67.260759 370.723277 
L 69.379747 368.707172 
L 71.498734 368.194605 
L 73.617722 368.431457 
L 75.736709 368.269329 
L 77.855696 366.697095 
L 79.974684 363.357681 
L 82.093671 358.859926 
L 84.212658 354.720981 
L 86.331646 352.879334 
L 88.450633 354.881661 
L 90.56962 361.015109 
L 92.688608 369.773884 
L 94.807595 378.081749 
L 96.926582 382.63814 
L 99.04557 382.63814 
L 101.164557 382.63814 
L 103.283544 382.63814 
L 105.402532 382.63814 
L 107.521519 382.63814 
L 109.640506 382.63814 
L 111.759494 382.63814 
L 113.878481 382.63814 
L 115.997468 382.63814 
L 118.116456 382.63814 
L 120.235443 382.63814 
L 122.35443 382.63814 
L 124.473418 382.63814 
L 126.592405 382.63814 
L 128.711392 382.63814 
L 130.83038 382.63814 
L 132.949367 382.63814 
L 135.068354 382.63814 
L 137.187342 382.63814 
L 139.306329 382.63814 
L 141.425316 382.63814 
L 143.544304 382.63814 
L 145.663291 382.63814 
L 147.782278 382.63814 
L 149.901266 382.63814 
L 152.020253 382.63814 
L 154.139241 382.63814 
L 156.258228 382.63814 
L 158.377215 382.63814 
L 160.496203 382.63814 
L 162.61519 382.63814 
L 164.734177 382.63814 
L 166.853165 382.63814 
L 168.972152 382.63814 
L 171.091139 382.63814 
L 173.210127 382.63814 
L 175.329114 382.63814 
L 177.448101 382.63814 
L 179.567089 382.63814 
L 181.686076 382.63814 
L 183.805063 382.63814 
L 185.924051 382.63814 
L 188.043038 382.63814 
L 190.162025 382.63814 
L 192.281013 382.63814 
L 194.4 382.63814 
" style="fill:none;stroke:#000000;stroke-linecap:square;"/>
   </g>
   <g id="text_7">
    <!-- 1.75 -->
    <g transform="translate(4.734375 382.63814)scale(0.1 -0.1)">
     <use xlink:href="#DejaVuSans-49"/>
     <use x="63.623047" xlink:href="#DejaVuSans-46"/>
     <use x="95.410156" xlink:href="#DejaVuSans-55"/>
     <use x="159.033203" xlink:href="#DejaVuSans-53"/>
    </g>
   </g>
  </g>
  <g id="axes_8">
   <g id="patch_9">
    <path d="M 27 412.978605 
L 194.4 412.978605 
L 194.4 311.843721 
L 27 311.843721 
z
" style="fill:none;opacity:0;"/>
   </g>
   <g id="PolyCollection_8">
    <defs>
     <path d="M 27 -163.021395 
L 27 -163.021395 
L 29.118987 -163.021395 
L 31.237975 -163.021395 
L 33.356962 -163.021395 
L 35.475949 -163.021395 
L 37.594937 -163.021395 
L 39.713924 -163.021395 
L 41.832911 -163.021395 
L 43.951899 -163.021395 
L 46.070886 -163.021395 
L 48.189873 -163.021395 
L 50.308861 -163.021395 
L 52.427848 -163.021395 
L 54.546835 -163.021395 
L 56.665823 -163.021395 
L 58.78481 -163.021395 
L 60.903797 -163.021395 
L 63.022785 -163.021395 
L 65.141772 -163.021395 
L 67.260759 -163.021395 
L 69.379747 -172.496434 
L 71.498734 -191.444741 
L 73.617722 -210.495186 
L 75.736709 -219.487285 
L 77.855696 -213.405879 
L 79.974684 -195.159945 
L 82.093671 -174.58341 
L 84.212658 -163.021395 
L 86.331646 -163.021395 
L 88.450633 -163.021395 
L 90.56962 -163.021395 
L 92.688608 -163.021395 
L 94.807595 -163.021395 
L 96.926582 -163.021395 
L 99.04557 -163.021395 
L 101.164557 -163.021395 
L 103.283544 -163.021395 
L 105.402532 -163.021395 
L 107.521519 -163.021395 
L 109.640506 -163.021395 
L 111.759494 -163.021395 
L 113.878481 -163.021395 
L 115.997468 -163.021395 
L 118.116456 -163.021395 
L 120.235443 -163.021395 
L 122.35443 -163.021395 
L 124.473418 -163.021395 
L 126.592405 -163.021395 
L 128.711392 -163.021395 
L 130.83038 -163.021395 
L 132.949367 -163.021395 
L 135.068354 -163.021395 
L 137.187342 -163.021395 
L 139.306329 -163.021395 
L 141.425316 -163.021395 
L 143.544304 -163.021395 
L 145.663291 -163.021395 
L 147.782278 -163.021395 
L 149.901266 -163.021395 
L 152.020253 -163.021395 
L 154.139241 -163.021395 
L 156.258228 -163.021395 
L 158.377215 -163.021395 
L 160.496203 -163.021395 
L 162.61519 -163.021395 
L 164.734177 -163.021395 
L 166.853165 -163.021395 
L 168.972152 -163.021395 
L 171.091139 -163.021395 
L 173.210127 -163.021395 
L 175.329114 -163.021395 
L 177.448101 -163.021395 
L 179.567089 -163.021395 
L 181.686076 -163.021395 
L 183.805063 -163.021395 
L 185.924051 -163.021395 
L 188.043038 -163.021395 
L 190.162025 -163.021395 
L 192.281013 -163.021395 
L 194.4 -163.021395 
L 194.4 -163.021395 
L 194.4 -163.021395 
L 192.281013 -163.021395 
L 190.162025 -163.021395 
L 188.043038 -163.021395 
L 185.924051 -163.021395 
L 183.805063 -163.021395 
L 181.686076 -163.021395 
L 179.567089 -163.021395 
L 177.448101 -163.021395 
L 175.329114 -163.021395 
L 173.210127 -163.021395 
L 171.091139 -163.021395 
L 168.972152 -163.021395 
L 166.853165 -163.021395 
L 164.734177 -163.021395 
L 162.61519 -163.021395 
L 160.496203 -163.021395 
L 158.377215 -163.021395 
L 156.258228 -163.021395 
L 154.139241 -163.021395 
L 152.020253 -163.021395 
L 149.901266 -163.021395 
L 147.782278 -163.021395 
L 145.663291 -163.021395 
L 143.544304 -163.021395 
L 141.425316 -163.021395 
L 139.306329 -163.021395 
L 137.187342 -163.021395 
L 135.068354 -163.021395 
L 132.949367 -163.021395 
L 130.83038 -163.021395 
L 128.711392 -163.021395 
L 126.592405 -163.021395 
L 124.473418 -163.021395 
L 122.35443 -163.021395 
L 120.235443 -163.021395 
L 118.116456 -163.021395 
L 115.997468 -163.021395 
L 113.878481 -163.021395 
L 111.759494 -163.021395 
L 109.640506 -163.021395 
L 107.521519 -163.021395 
L 105.402532 -163.021395 
L 103.283544 -163.021395 
L 101.164557 -163.021395 
L 99.04557 -163.021395 
L 96.926582 -163.021395 
L 94.807595 -163.021395 
L 92.688608 -163.021395 
L 90.56962 -163.021395 
L 88.450633 -163.021395 
L 86.331646 -163.021395 
L 84.212658 -163.021395 
L 82.093671 -163.021395 
L 79.974684 -163.021395 
L 77.855696 -163.021395 
L 75.736709 -163.021395 
L 73.617722 -163.021395 
L 71.498734 -163.021395 
L 69.379747 -163.021395 
L 67.260759 -163.021395 
L 65.141772 -163.021395 
L 63.022785 -163.021395 
L 60.903797 -163.021395 
L 58.78481 -163.021395 
L 56.665823 -163.021395 
L 54.546835 -163.021395 
L 52.427848 -163.021395 
L 50.308861 -163.021395 
L 48.189873 -163.021395 
L 46.070886 -163.021395 
L 43.951899 -163.021395 
L 41.832911 -163.021395 
L 39.713924 -163.021395 
L 37.594937 -163.021395 
L 35.475949 -163.021395 
L 33.356962 -163.021395 
L 31.237975 -163.021395 
L 29.118987 -163.021395 
L 27 -163.021395 
z
" id="m5e2c9becef" style="stroke:#008000;"/>
    </defs>
    <g clip-path="url(#p3c88e27c67)">
     <use style="fill:#008000;stroke:#008000;" x="0" xlink:href="#m5e2c9becef" y="576"/>
    </g>
   </g>
   <g id="matplotlib.axis_15"/>
   <g id="matplotlib.axis_16"/>
   <g id="line2d_8">
    <path clip-path="url(#p3c88e27c67)" d="M 27 412.978605 
L 29.118987 412.978605 
L 31.237975 412.978605 
L 33.356962 412.978605 
L 35.475949 412.978605 
L 37.594937 412.978605 
L 39.713924 412.978605 
L 41.832911 412.978605 
L 43.951899 412.978605 
L 46.070886 412.978605 
L 48.189873 412.978605 
L 50.308861 412.978605 
L 52.427848 412.978605 
L 54.546835 412.978605 
L 56.665823 412.978605 
L 58.78481 412.978605 
L 60.903797 412.978605 
L 63.022785 412.978605 
L 65.141772 412.978605 
L 67.260759 412.978605 
L 69.379747 403.503566 
L 71.498734 384.555259 
L 73.617722 365.504814 
L 75.736709 356.512715 
L 77.855696 362.594121 
L 79.974684 380.840055 
L 82.093671 401.41659 
L 84.212658 412.978605 
L 86.331646 412.978605 
L 88.450633 412.978605 
L 90.56962 412.978605 
L 92.688608 412.978605 
L 94.807595 412.978605 
L 96.926582 412.978605 
L 99.04557 412.978605 
L 101.164557 412.978605 
L 103.283544 412.978605 
L 105.402532 412.978605 
L 107.521519 412.978605 
L 109.640506 412.978605 
L 111.759494 412.978605 
L 113.878481 412.978605 
L 115.997468 412.978605 
L 118.116456 412.978605 
L 120.235443 412.978605 
L 122.35443 412.978605 
L 124.473418 412.978605 
L 126.592405 412.978605 
L 128.711392 412.978605 
L 130.83038 412.978605 
L 132.949367 412.978605 
L 135.068354 412.978605 
L 137.187342 412.978605 
L 139.306329 412.978605 
L 141.425316 412.978605 
L 143.544304 412.978605 
L 145.663291 412.978605 
L 147.782278 412.978605 
L 149.901266 412.978605 
L 152.020253 412.978605 
L 154.139241 412.978605 
L 156.258228 412.978605 
L 158.377215 412.978605 
L 160.496203 412.978605 
L 162.61519 412.978605 
L 164.734177 412.978605 
L 166.853165 412.978605 
L 168.972152 412.978605 
L 171.091139 412.978605 
L 173.210127 412.978605 
L 175.329114 412.978605 
L 177.448101 412.978605 
L 179.567089 412.978605 
L 181.686076 412.978605 
L 183.805063 412.978605 
L 185.924051 412.978605 
L 188.043038 412.978605 
L 190.162025 412.978605 
L 192.281013 412.978605 
L 194.4 412.978605 
" style="fill:none;stroke:#000000;stroke-linecap:square;"/>
   </g>
   <g id="text_8">
    <!-- 2.00 -->
    <g transform="translate(4.734375 412.978605)scale(0.1 -0.1)">
     <use xlink:href="#DejaVuSans-50"/>
     <use x="63.623047" xlink:href="#DejaVuSans-46"/>
     <use x="95.410156" xlink:href="#DejaVuSans-48"/>
     <use x="159.033203" xlink:href="#DejaVuSans-48"/>
    </g>
   </g>
  </g>
  <g id="axes_9">
   <g id="patch_10">
    <path d="M 27 443.31907 
L 194.4 443.31907 
L 194.4 342.184186 
L 27 342.184186 
z
" style="fill:none;opacity:0;"/>
   </g>
   <g id="PolyCollection_9">
    <defs>
     <path d="M 27 -132.68093 
L 27 -132.68093 
L 29.118987 -132.68093 
L 31.237975 -132.68093 
L 33.356962 -132.68093 
L 35.475949 -132.68093 
L 37.594937 -132.68093 
L 39.713924 -132.68093 
L 41.832911 -132.68093 
L 43.951899 -132.68093 
L 46.070886 -132.68093 
L 48.189873 -132.68093 
L 50.308861 -132.68093 
L 52.427848 -132.68093 
L 54.546835 -132.68093 
L 56.665823 -132.68093 
L 58.78481 -132.68093 
L 60.903797 -148.12506 
L 63.022785 -175.372901 
L 65.141772 -196.903208 
L 67.260759 -197.67896 
L 69.379747 -176.428449 
L 71.498734 -147.887078 
L 73.617722 -132.68093 
L 75.736709 -132.68093 
L 77.855696 -132.68093 
L 79.974684 -132.68093 
L 82.093671 -132.68093 
L 84.212658 -132.68093 
L 86.331646 -132.68093 
L 88.450633 -132.68093 
L 90.56962 -132.68093 
L 92.688608 -132.68093 
L 94.807595 -132.68093 
L 96.926582 -132.68093 
L 99.04557 -132.68093 
L 101.164557 -132.68093 
L 103.283544 -132.68093 
L 105.402532 -132.68093 
L 107.521519 -132.68093 
L 109.640506 -132.68093 
L 111.759494 -132.68093 
L 113.878481 -132.68093 
L 115.997468 -132.68093 
L 118.116456 -132.68093 
L 120.235443 -132.68093 
L 122.35443 -132.68093 
L 124.473418 -132.68093 
L 126.592405 -132.68093 
L 128.711392 -132.68093 
L 130.83038 -132.68093 
L 132.949367 -132.68093 
L 135.068354 -132.68093 
L 137.187342 -132.68093 
L 139.306329 -132.68093 
L 141.425316 -132.68093 
L 143.544304 -132.68093 
L 145.663291 -132.68093 
L 147.782278 -132.68093 
L 149.901266 -132.68093 
L 152.020253 -132.68093 
L 154.139241 -132.68093 
L 156.258228 -132.68093 
L 158.377215 -132.68093 
L 160.496203 -132.68093 
L 162.61519 -132.68093 
L 164.734177 -132.68093 
L 166.853165 -132.68093 
L 168.972152 -132.68093 
L 171.091139 -132.68093 
L 173.210127 -132.68093 
L 175.329114 -132.68093 
L 177.448101 -132.68093 
L 179.567089 -132.68093 
L 181.686076 -132.68093 
L 183.805063 -132.68093 
L 185.924051 -132.68093 
L 188.043038 -132.68093 
L 190.162025 -132.68093 
L 192.281013 -133.394526 
L 194.4 -135.702151 
L 194.4 -132.68093 
L 194.4 -132.68093 
L 192.281013 -132.68093 
L 190.162025 -132.68093 
L 188.043038 -132.68093 
L 185.924051 -132.68093 
L 183.805063 -132.68093 
L 181.686076 -132.68093 
L 179.567089 -132.68093 
L 177.448101 -132.68093 
L 175.329114 -132.68093 
L 173.210127 -132.68093 
L 171.091139 -132.68093 
L 168.972152 -132.68093 
L 166.853165 -132.68093 
L 164.734177 -132.68093 
L 162.61519 -132.68093 
L 160.496203 -132.68093 
L 158.377215 -132.68093 
L 156.258228 -132.68093 
L 154.139241 -132.68093 
L 152.020253 -132.68093 
L 149.901266 -132.68093 
L 147.782278 -132.68093 
L 145.663291 -132.68093 
L 143.544304 -132.68093 
L 141.425316 -132.68093 
L 139.306329 -132.68093 
L 137.187342 -132.68093 
L 135.068354 -132.68093 
L 132.949367 -132.68093 
L 130.83038 -132.68093 
L 128.711392 -132.68093 
L 126.592405 -132.68093 
L 124.473418 -132.68093 
L 122.35443 -132.68093 
L 120.235443 -132.68093 
L 118.116456 -132.68093 
L 115.997468 -132.68093 
L 113.878481 -132.68093 
L 111.759494 -132.68093 
L 109.640506 -132.68093 
L 107.521519 -132.68093 
L 105.402532 -132.68093 
L 103.283544 -132.68093 
L 101.164557 -132.68093 
L 99.04557 -132.68093 
L 96.926582 -132.68093 
L 94.807595 -132.68093 
L 92.688608 -132.68093 
L 90.56962 -132.68093 
L 88.450633 -132.68093 
L 86.331646 -132.68093 
L 84.212658 -132.68093 
L 82.093671 -132.68093 
L 79.974684 -132.68093 
L 77.855696 -132.68093 
L 75.736709 -132.68093 
L 73.617722 -132.68093 
L 71.498734 -132.68093 
L 69.379747 -132.68093 
L 67.260759 -132.68093 
L 65.141772 -132.68093 
L 63.022785 -132.68093 
L 60.903797 -132.68093 
L 58.78481 -132.68093 
L 56.665823 -132.68093 
L 54.546835 -132.68093 
L 52.427848 -132.68093 
L 50.308861 -132.68093 
L 48.189873 -132.68093 
L 46.070886 -132.68093 
L 43.951899 -132.68093 
L 41.832911 -132.68093 
L 39.713924 -132.68093 
L 37.594937 -132.68093 
L 35.475949 -132.68093 
L 33.356962 -132.68093 
L 31.237975 -132.68093 
L 29.118987 -132.68093 
L 27 -132.68093 
z
" id="m649a29f07b" style="stroke:#008000;"/>
    </defs>
    <g clip-path="url(#p40b57019bd)">
     <use style="fill:#008000;stroke:#008000;" x="0" xlink:href="#m649a29f07b" y="576"/>
    </g>
   </g>
   <g id="matplotlib.axis_17"/>
   <g id="matplotlib.axis_18"/>
   <g id="line2d_9">
    <path clip-path="url(#p40b57019bd)" d="M 27 443.31907 
L 29.118987 443.31907 
L 31.237975 443.31907 
L 33.356962 443.31907 
L 35.475949 443.31907 
L 37.594937 443.31907 
L 39.713924 443.31907 
L 41.832911 443.31907 
L 43.951899 443.31907 
L 46.070886 443.31907 
L 48.189873 443.31907 
L 50.308861 443.31907 
L 52.427848 443.31907 
L 54.546835 443.31907 
L 56.665823 443.31907 
L 58.78481 443.31907 
L 60.903797 427.87494 
L 63.022785 400.627099 
L 65.141772 379.096792 
L 67.260759 378.32104 
L 69.379747 399.571551 
L 71.498734 428.112922 
L 73.617722 443.31907 
L 75.736709 443.31907 
L 77.855696 443.31907 
L 79.974684 443.31907 
L 82.093671 443.31907 
L 84.212658 443.31907 
L 86.331646 443.31907 
L 88.450633 443.31907 
L 90.56962 443.31907 
L 92.688608 443.31907 
L 94.807595 443.31907 
L 96.926582 443.31907 
L 99.04557 443.31907 
L 101.164557 443.31907 
L 103.283544 443.31907 
L 105.402532 443.31907 
L 107.521519 443.31907 
L 109.640506 443.31907 
L 111.759494 443.31907 
L 113.878481 443.31907 
L 115.997468 443.31907 
L 118.116456 443.31907 
L 120.235443 443.31907 
L 122.35443 443.31907 
L 124.473418 443.31907 
L 126.592405 443.31907 
L 128.711392 443.31907 
L 130.83038 443.31907 
L 132.949367 443.31907 
L 135.068354 443.31907 
L 137.187342 443.31907 
L 139.306329 443.31907 
L 141.425316 443.31907 
L 143.544304 443.31907 
L 145.663291 443.31907 
L 147.782278 443.31907 
L 149.901266 443.31907 
L 152.020253 443.31907 
L 154.139241 443.31907 
L 156.258228 443.31907 
L 158.377215 443.31907 
L 160.496203 443.31907 
L 162.61519 443.31907 
L 164.734177 443.31907 
L 166.853165 443.31907 
L 168.972152 443.31907 
L 171.091139 443.31907 
L 173.210127 443.31907 
L 175.329114 443.31907 
L 177.448101 443.31907 
L 179.567089 443.31907 
L 181.686076 443.31907 
L 183.805063 443.31907 
L 185.924051 443.31907 
L 188.043038 443.31907 
L 190.162025 443.31907 
L 192.281013 442.605474 
L 194.4 440.297849 
" style="fill:none;stroke:#000000;stroke-linecap:square;"/>
   </g>
   <g id="text_9">
    <!-- 2.25 -->
    <g transform="translate(4.734375 443.31907)scale(0.1 -0.1)">
     <use xlink:href="#DejaVuSans-50"/>
     <use x="63.623047" xlink:href="#DejaVuSans-46"/>
     <use x="95.410156" xlink:href="#DejaVuSans-50"/>
     <use x="159.033203" xlink:href="#DejaVuSans-53"/>
    </g>
   </g>
  </g>
  <g id="axes_10">
   <g id="patch_11">
    <path d="M 27 473.659535 
L 194.4 473.659535 
L 194.4 372.524651 
L 27 372.524651 
z
" style="fill:none;opacity:0;"/>
   </g>
   <g id="PolyCollection_10">
    <defs>
     <path d="M 27 -102.340465 
L 27 -115.519455 
L 29.118987 -135.501476 
L 31.237975 -156.283837 
L 33.356962 -172.598232 
L 35.475949 -180.448165 
L 37.594937 -177.770946 
L 39.713924 -165.050345 
L 41.832911 -145.565695 
L 43.951899 -124.872045 
L 46.070886 -109.153036 
L 48.189873 -102.340465 
L 50.308861 -102.340465 
L 52.427848 -102.340465 
L 54.546835 -102.340465 
L 56.665823 -110.00061 
L 58.78481 -122.738828 
L 60.903797 -132.780837 
L 63.022785 -133.331703 
L 65.141772 -123.571612 
L 67.260759 -110.027921 
L 69.379747 -102.340465 
L 71.498734 -102.340465 
L 73.617722 -102.340465 
L 75.736709 -102.340465 
L 77.855696 -102.340465 
L 79.974684 -102.340465 
L 82.093671 -102.340465 
L 84.212658 -102.340465 
L 86.331646 -102.340465 
L 88.450633 -102.340465 
L 90.56962 -102.340465 
L 92.688608 -102.340465 
L 94.807595 -102.340465 
L 96.926582 -102.340465 
L 99.04557 -102.340465 
L 101.164557 -102.340465 
L 103.283544 -102.340465 
L 105.402532 -102.340465 
L 107.521519 -102.340465 
L 109.640506 -102.340465 
L 111.759494 -102.340465 
L 113.878481 -102.340465 
L 115.997468 -102.340465 
L 118.116456 -102.340465 
L 120.235443 -102.340465 
L 122.35443 -102.340465 
L 124.473418 -102.340465 
L 126.592405 -102.340465 
L 128.711392 -102.340465 
L 130.83038 -102.340465 
L 132.949367 -102.340465 
L 135.068354 -102.340465 
L 137.187342 -102.340465 
L 139.306329 -102.340465 
L 141.425316 -102.340465 
L 143.544304 -102.340465 
L 145.663291 -102.340465 
L 147.782278 -102.340465 
L 149.901266 -102.340465 
L 152.020253 -102.340465 
L 154.139241 -102.340465 
L 156.258228 -102.340465 
L 158.377215 -102.340465 
L 160.496203 -102.340465 
L 162.61519 -102.340465 
L 164.734177 -102.340465 
L 166.853165 -102.340465 
L 168.972152 -102.340465 
L 171.091139 -102.340465 
L 173.210127 -102.340465 
L 175.329114 -102.340465 
L 177.448101 -102.340465 
L 179.567089 -102.340465 
L 181.686076 -102.340465 
L 183.805063 -102.340465 
L 185.924051 -102.340465 
L 188.043038 -102.340465 
L 190.162025 -102.340465 
L 192.281013 -102.340465 
L 194.4 -102.340465 
L 194.4 -102.340465 
L 194.4 -102.340465 
L 192.281013 -102.340465 
L 190.162025 -102.340465 
L 188.043038 -102.340465 
L 185.924051 -102.340465 
L 183.805063 -102.340465 
L 181.686076 -102.340465 
L 179.567089 -102.340465 
L 177.448101 -102.340465 
L 175.329114 -102.340465 
L 173.210127 -102.340465 
L 171.091139 -102.340465 
L 168.972152 -102.340465 
L 166.853165 -102.340465 
L 164.734177 -102.340465 
L 162.61519 -102.340465 
L 160.496203 -102.340465 
L 158.377215 -102.340465 
L 156.258228 -102.340465 
L 154.139241 -102.340465 
L 152.020253 -102.340465 
L 149.901266 -102.340465 
L 147.782278 -102.340465 
L 145.663291 -102.340465 
L 143.544304 -102.340465 
L 141.425316 -102.340465 
L 139.306329 -102.340465 
L 137.187342 -102.340465 
L 135.068354 -102.340465 
L 132.949367 -102.340465 
L 130.83038 -102.340465 
L 128.711392 -102.340465 
L 126.592405 -102.340465 
L 124.473418 -102.340465 
L 122.35443 -102.340465 
L 120.235443 -102.340465 
L 118.116456 -102.340465 
L 115.997468 -102.340465 
L 113.878481 -102.340465 
L 111.759494 -102.340465 
L 109.640506 -102.340465 
L 107.521519 -102.340465 
L 105.402532 -102.340465 
L 103.283544 -102.340465 
L 101.164557 -102.340465 
L 99.04557 -102.340465 
L 96.926582 -102.340465 
L 94.807595 -102.340465 
L 92.688608 -102.340465 
L 90.56962 -102.340465 
L 88.450633 -102.340465 
L 86.331646 -102.340465 
L 84.212658 -102.340465 
L 82.093671 -102.340465 
L 79.974684 -102.340465 
L 77.855696 -102.340465 
L 75.736709 -102.340465 
L 73.617722 -102.340465 
L 71.498734 -102.340465 
L 69.379747 -102.340465 
L 67.260759 -102.340465 
L 65.141772 -102.340465 
L 63.022785 -102.340465 
L 60.903797 -102.340465 
L 58.78481 -102.340465 
L 56.665823 -102.340465 
L 54.546835 -102.340465 
L 52.427848 -102.340465 
L 50.308861 -102.340465 
L 48.189873 -102.340465 
L 46.070886 -102.340465 
L 43.951899 -102.340465 
L 41.832911 -102.340465 
L 39.713924 -102.340465 
L 37.594937 -102.340465 
L 35.475949 -102.340465 
L 33.356962 -102.340465 
L 31.237975 -102.340465 
L 29.118987 -102.340465 
L 27 -102.340465 
z
" id="mb545285664" style="stroke:#008000;"/>
    </defs>
    <g clip-path="url(#pf1334cab01)">
     <use style="fill:#008000;stroke:#008000;" x="0" xlink:href="#mb545285664" y="576"/>
    </g>
   </g>
   <g id="matplotlib.axis_19"/>
   <g id="matplotlib.axis_20"/>
   <g id="line2d_10">
    <path clip-path="url(#pf1334cab01)" d="M 27 460.480545 
L 29.118987 440.498524 
L 31.237975 419.716163 
L 33.356962 403.401768 
L 35.475949 395.551835 
L 37.594937 398.229054 
L 39.713924 410.949655 
L 41.832911 430.434305 
L 43.951899 451.127955 
L 46.070886 466.846964 
L 48.189873 473.659535 
L 50.308861 473.659535 
L 52.427848 473.659535 
L 54.546835 473.659535 
L 56.665823 465.99939 
L 58.78481 453.261172 
L 60.903797 443.219163 
L 63.022785 442.668297 
L 65.141772 452.428388 
L 67.260759 465.972079 
L 69.379747 473.659535 
L 71.498734 473.659535 
L 73.617722 473.659535 
L 75.736709 473.659535 
L 77.855696 473.659535 
L 79.974684 473.659535 
L 82.093671 473.659535 
L 84.212658 473.659535 
L 86.331646 473.659535 
L 88.450633 473.659535 
L 90.56962 473.659535 
L 92.688608 473.659535 
L 94.807595 473.659535 
L 96.926582 473.659535 
L 99.04557 473.659535 
L 101.164557 473.659535 
L 103.283544 473.659535 
L 105.402532 473.659535 
L 107.521519 473.659535 
L 109.640506 473.659535 
L 111.759494 473.659535 
L 113.878481 473.659535 
L 115.997468 473.659535 
L 118.116456 473.659535 
L 120.235443 473.659535 
L 122.35443 473.659535 
L 124.473418 473.659535 
L 126.592405 473.659535 
L 128.711392 473.659535 
L 130.83038 473.659535 
L 132.949367 473.659535 
L 135.068354 473.659535 
L 137.187342 473.659535 
L 139.306329 473.659535 
L 141.425316 473.659535 
L 143.544304 473.659535 
L 145.663291 473.659535 
L 147.782278 473.659535 
L 149.901266 473.659535 
L 152.020253 473.659535 
L 154.139241 473.659535 
L 156.258228 473.659535 
L 158.377215 473.659535 
L 160.496203 473.659535 
L 162.61519 473.659535 
L 164.734177 473.659535 
L 166.853165 473.659535 
L 168.972152 473.659535 
L 171.091139 473.659535 
L 173.210127 473.659535 
L 175.329114 473.659535 
L 177.448101 473.659535 
L 179.567089 473.659535 
L 181.686076 473.659535 
L 183.805063 473.659535 
L 185.924051 473.659535 
L 188.043038 473.659535 
L 190.162025 473.659535 
L 192.281013 473.659535 
L 194.4 473.659535 
" style="fill:none;stroke:#000000;stroke-linecap:square;"/>
   </g>
   <g id="text_10">
    <!-- 2.50 -->
    <g transform="translate(4.734375 473.659535)scale(0.1 -0.1)">
     <use xlink:href="#DejaVuSans-50"/>
     <use x="63.623047" xlink:href="#DejaVuSans-46"/>
     <use x="95.410156" xlink:href="#DejaVuSans-53"/>
     <use x="159.033203" xlink:href="#DejaVuSans-48"/>
    </g>
   </g>
  </g>
  <g id="axes_11">
   <g id="patch_12">
    <path d="M 27 504 
L 194.4 504 
L 194.4 402.865116 
L 27 402.865116 
z
" style="fill:none;opacity:0;"/>
   </g>
   <g id="PolyCollection_11">
    <defs>
     <path d="M 27 -72 
L 27 -72 
L 29.118987 -72 
L 31.237975 -72 
L 33.356962 -72 
L 35.475949 -72 
L 37.594937 -72 
L 39.713924 -72 
L 41.832911 -72 
L 43.951899 -72 
L 46.070886 -72 
L 48.189873 -72 
L 50.308861 -72 
L 52.427848 -72 
L 54.546835 -72 
L 56.665823 -72 
L 58.78481 -72 
L 60.903797 -72 
L 63.022785 -81.069879 
L 65.141772 -96.770469 
L 67.260759 -106.082963 
L 69.379747 -100.882036 
L 71.498734 -85.09455 
L 73.617722 -72.033252 
L 75.736709 -72 
L 77.855696 -72 
L 79.974684 -72 
L 82.093671 -72 
L 84.212658 -72 
L 86.331646 -72 
L 88.450633 -72 
L 90.56962 -72 
L 92.688608 -72 
L 94.807595 -72 
L 96.926582 -72 
L 99.04557 -72 
L 101.164557 -72 
L 103.283544 -72 
L 105.402532 -72 
L 107.521519 -72 
L 109.640506 -72 
L 111.759494 -72 
L 113.878481 -72 
L 115.997468 -72 
L 118.116456 -72 
L 120.235443 -72 
L 122.35443 -72.398193 
L 124.473418 -72.986506 
L 126.592405 -73.366183 
L 128.711392 -73.309122 
L 130.83038 -72.870525 
L 132.949367 -72.327369 
L 135.068354 -72 
L 137.187342 -72 
L 139.306329 -72 
L 141.425316 -72 
L 143.544304 -72 
L 145.663291 -72 
L 147.782278 -72 
L 149.901266 -72 
L 152.020253 -72 
L 154.139241 -72 
L 156.258228 -72 
L 158.377215 -72 
L 160.496203 -72 
L 162.61519 -72 
L 164.734177 -72 
L 166.853165 -72 
L 168.972152 -72 
L 171.091139 -72 
L 173.210127 -72 
L 175.329114 -72 
L 177.448101 -72 
L 179.567089 -72 
L 181.686076 -72 
L 183.805063 -72 
L 185.924051 -72 
L 188.043038 -72 
L 190.162025 -72 
L 192.281013 -72 
L 194.4 -72 
L 194.4 -72 
L 194.4 -72 
L 192.281013 -72 
L 190.162025 -72 
L 188.043038 -72 
L 185.924051 -72 
L 183.805063 -72 
L 181.686076 -72 
L 179.567089 -72 
L 177.448101 -72 
L 175.329114 -72 
L 173.210127 -72 
L 171.091139 -72 
L 168.972152 -72 
L 166.853165 -72 
L 164.734177 -72 
L 162.61519 -72 
L 160.496203 -72 
L 158.377215 -72 
L 156.258228 -72 
L 154.139241 -72 
L 152.020253 -72 
L 149.901266 -72 
L 147.782278 -72 
L 145.663291 -72 
L 143.544304 -72 
L 141.425316 -72 
L 139.306329 -72 
L 137.187342 -72 
L 135.068354 -72 
L 132.949367 -72 
L 130.83038 -72 
L 128.711392 -72 
L 126.592405 -72 
L 124.473418 -72 
L 122.35443 -72 
L 120.235443 -72 
L 118.116456 -72 
L 115.997468 -72 
L 113.878481 -72 
L 111.759494 -72 
L 109.640506 -72 
L 107.521519 -72 
L 105.402532 -72 
L 103.283544 -72 
L 101.164557 -72 
L 99.04557 -72 
L 96.926582 -72 
L 94.807595 -72 
L 92.688608 -72 
L 90.56962 -72 
L 88.450633 -72 
L 86.331646 -72 
L 84.212658 -72 
L 82.093671 -72 
L 79.974684 -72 
L 77.855696 -72 
L 75.736709 -72 
L 73.617722 -72 
L 71.498734 -72 
L 69.379747 -72 
L 67.260759 -72 
L 65.141772 -72 
L 63.022785 -72 
L 60.903797 -72 
L 58.78481 -72 
L 56.665823 -72 
L 54.546835 -72 
L 52.427848 -72 
L 50.308861 -72 
L 48.189873 -72 
L 46.070886 -72 
L 43.951899 -72 
L 41.832911 -72 
L 39.713924 -72 
L 37.594937 -72 
L 35.475949 -72 
L 33.356962 -72 
L 31.237975 -72 
L 29.118987 -72 
L 27 -72 
z
" id="mbfdd774412" style="stroke:#008000;"/>
    </defs>
    <g clip-path="url(#p15f7e962af)">
     <use style="fill:#008000;stroke:#008000;" x="0" xlink:href="#mbfdd774412" y="576"/>
    </g>
   </g>
   <g id="matplotlib.axis_21">
    <g id="xtick_1">
     <g id="line2d_11">
      <defs>
       <path d="M 0 0 
L 0 3.5 
" id="m295950a9a3" style="stroke:#000000;stroke-width:0.8;"/>
      </defs>
      <g>
       <use style="stroke:#000000;stroke-width:0.8;" x="27" xlink:href="#m295950a9a3" y="504"/>
      </g>
     </g>
     <g id="text_11">
      <!-- $\mathdefault{10^{-4}}$ -->
      <g transform="translate(15.25 518.598438)scale(0.1 -0.1)">
       <defs>
        <path d="M 10.59375 35.5 
L 73.1875 35.5 
L 73.1875 27.203125 
L 10.59375 27.203125 
z
" id="DejaVuSans-8722"/>
        <path d="M 37.796875 64.3125 
L 12.890625 25.390625 
L 37.796875 25.390625 
z
M 35.203125 72.90625 
L 47.609375 72.90625 
L 47.609375 25.390625 
L 58.015625 25.390625 
L 58.015625 17.1875 
L 47.609375 17.1875 
L 47.609375 0 
L 37.796875 0 
L 37.796875 17.1875 
L 4.890625 17.1875 
L 4.890625 26.703125 
z
" id="DejaVuSans-52"/>
       </defs>
       <use transform="translate(0 0.684375)" xlink:href="#DejaVuSans-49"/>
       <use transform="translate(63.623047 0.684375)" xlink:href="#DejaVuSans-48"/>
       <use transform="translate(128.203125 38.965625)scale(0.7)" xlink:href="#DejaVuSans-8722"/>
       <use transform="translate(186.855469 38.965625)scale(0.7)" xlink:href="#DejaVuSans-52"/>
      </g>
     </g>
    </g>
    <g id="xtick_2">
     <g id="line2d_12">
      <g>
       <use style="stroke:#000000;stroke-width:0.8;" x="93.96" xlink:href="#m295950a9a3" y="504"/>
      </g>
     </g>
     <g id="text_12">
      <!-- $\mathdefault{10^{-2}}$ -->
      <g transform="translate(82.21 518.598438)scale(0.1 -0.1)">
       <use transform="translate(0 0.765625)" xlink:href="#DejaVuSans-49"/>
       <use transform="translate(63.623047 0.765625)" xlink:href="#DejaVuSans-48"/>
       <use transform="translate(128.203125 39.046875)scale(0.7)" xlink:href="#DejaVuSans-8722"/>
       <use transform="translate(186.855469 39.046875)scale(0.7)" xlink:href="#DejaVuSans-50"/>
      </g>
     </g>
    </g>
    <g id="xtick_3">
     <g id="line2d_13">
      <g>
       <use style="stroke:#000000;stroke-width:0.8;" x="160.92" xlink:href="#m295950a9a3" y="504"/>
      </g>
     </g>
     <g id="text_13">
      <!-- $\mathdefault{10^{0}}$ -->
      <g transform="translate(152.12 518.598438)scale(0.1 -0.1)">
       <use transform="translate(0 0.765625)" xlink:href="#DejaVuSans-49"/>
       <use transform="translate(63.623047 0.765625)" xlink:href="#DejaVuSans-48"/>
       <use transform="translate(128.203125 39.046875)scale(0.7)" xlink:href="#DejaVuSans-48"/>
      </g>
     </g>
    </g>
    <g id="text_14">
     <!-- $T_2 (s)$ -->
     <g transform="translate(93.97 535.315938)scale(0.14 -0.14)">
      <defs>
       <path d="M 5.90625 72.90625 
L 67.578125 72.90625 
L 66.015625 64.59375 
L 39.984375 64.59375 
L 27.484375 0 
L 17.578125 0 
L 30.078125 64.59375 
L 4.296875 64.59375 
z
" id="DejaVuSans-Oblique-84"/>
       <path d="M 31 75.875 
Q 24.46875 64.65625 21.28125 53.65625 
Q 18.109375 42.671875 18.109375 31.390625 
Q 18.109375 20.125 21.3125 9.0625 
Q 24.515625 -2 31 -13.1875 
L 23.1875 -13.1875 
Q 15.875 -1.703125 12.234375 9.375 
Q 8.59375 20.453125 8.59375 31.390625 
Q 8.59375 42.28125 12.203125 53.3125 
Q 15.828125 64.359375 23.1875 75.875 
z
" id="DejaVuSans-40"/>
       <path d="M 50 53.078125 
L 48.296875 44.578125 
Q 44.734375 46.53125 40.765625 47.5 
Q 36.8125 48.484375 32.625 48.484375 
Q 25.53125 48.484375 21.453125 46.0625 
Q 17.390625 43.65625 17.390625 39.5 
Q 17.390625 34.671875 26.859375 32.078125 
Q 27.59375 31.890625 27.9375 31.78125 
L 30.8125 30.90625 
Q 39.796875 28.421875 42.796875 25.6875 
Q 45.796875 22.953125 45.796875 18.21875 
Q 45.796875 9.515625 38.890625 4.046875 
Q 31.984375 -1.421875 20.796875 -1.421875 
Q 16.453125 -1.421875 11.671875 -0.578125 
Q 6.890625 0.25 1.125 2 
L 2.875 11.28125 
Q 7.8125 8.734375 12.59375 7.421875 
Q 17.390625 6.109375 21.78125 6.109375 
Q 28.375 6.109375 32.5 8.9375 
Q 36.625 11.765625 36.625 16.109375 
Q 36.625 20.796875 25.78125 23.6875 
L 24.859375 23.921875 
L 21.78125 24.703125 
Q 14.9375 26.515625 11.765625 29.46875 
Q 8.59375 32.421875 8.59375 37.015625 
Q 8.59375 45.75 15.15625 50.875 
Q 21.734375 56 33.015625 56 
Q 37.453125 56 41.671875 55.265625 
Q 45.90625 54.546875 50 53.078125 
z
" id="DejaVuSans-Oblique-115"/>
       <path d="M 8.015625 75.875 
L 15.828125 75.875 
Q 23.140625 64.359375 26.78125 53.3125 
Q 30.421875 42.28125 30.421875 31.390625 
Q 30.421875 20.453125 26.78125 9.375 
Q 23.140625 -1.703125 15.828125 -13.1875 
L 8.015625 -13.1875 
Q 14.5 -2 17.703125 9.0625 
Q 20.90625 20.125 20.90625 31.390625 
Q 20.90625 42.671875 17.703125 53.65625 
Q 14.5 64.65625 8.015625 75.875 
z
" id="DejaVuSans-41"/>
      </defs>
      <use transform="translate(0 0.125)" xlink:href="#DejaVuSans-Oblique-84"/>
      <use transform="translate(61.083984 -16.28125)scale(0.7)" xlink:href="#DejaVuSans-50"/>
      <use transform="translate(108.354492 0.125)" xlink:href="#DejaVuSans-40"/>
      <use transform="translate(147.368164 0.125)" xlink:href="#DejaVuSans-Oblique-115"/>
      <use transform="translate(199.467773 0.125)" xlink:href="#DejaVuSans-41"/>
     </g>
    </g>
   </g>
   <g id="matplotlib.axis_22"/>
   <g id="line2d_14">
    <path clip-path="url(#p15f7e962af)" d="M 27 504 
L 29.118987 504 
L 31.237975 504 
L 33.356962 504 
L 35.475949 504 
L 37.594937 504 
L 39.713924 504 
L 41.832911 504 
L 43.951899 504 
L 46.070886 504 
L 48.189873 504 
L 50.308861 504 
L 52.427848 504 
L 54.546835 504 
L 56.665823 504 
L 58.78481 504 
L 60.903797 504 
L 63.022785 494.930121 
L 65.141772 479.229531 
L 67.260759 469.917037 
L 69.379747 475.117964 
L 71.498734 490.90545 
L 73.617722 503.966748 
L 75.736709 504 
L 77.855696 504 
L 79.974684 504 
L 82.093671 504 
L 84.212658 504 
L 86.331646 504 
L 88.450633 504 
L 90.56962 504 
L 92.688608 504 
L 94.807595 504 
L 96.926582 504 
L 99.04557 504 
L 101.164557 504 
L 103.283544 504 
L 105.402532 504 
L 107.521519 504 
L 109.640506 504 
L 111.759494 504 
L 113.878481 504 
L 115.997468 504 
L 118.116456 504 
L 120.235443 504 
L 122.35443 503.601807 
L 124.473418 503.013494 
L 126.592405 502.633817 
L 128.711392 502.690878 
L 130.83038 503.129475 
L 132.949367 503.672631 
L 135.068354 504 
L 137.187342 504 
L 139.306329 504 
L 141.425316 504 
L 143.544304 504 
L 145.663291 504 
L 147.782278 504 
L 149.901266 504 
L 152.020253 504 
L 154.139241 504 
L 156.258228 504 
L 158.377215 504 
L 160.496203 504 
L 162.61519 504 
L 164.734177 504 
L 166.853165 504 
L 168.972152 504 
L 171.091139 504 
L 173.210127 504 
L 175.329114 504 
L 177.448101 504 
L 179.567089 504 
L 181.686076 504 
L 183.805063 504 
L 185.924051 504 
L 188.043038 504 
L 190.162025 504 
L 192.281013 504 
L 194.4 504 
" style="fill:none;stroke:#000000;stroke-linecap:square;"/>
   </g>
   <g id="text_15">
    <!-- 2.75 -->
    <g transform="translate(4.734375 504)scale(0.1 -0.1)">
     <use xlink:href="#DejaVuSans-50"/>
     <use x="63.623047" xlink:href="#DejaVuSans-46"/>
     <use x="95.410156" xlink:href="#DejaVuSans-55"/>
     <use x="159.033203" xlink:href="#DejaVuSans-53"/>
    </g>
   </g>
  </g>
 </g>
 <defs>
  <clipPath id="p157c0aa081">
   <rect height="101.134884" width="167.4" x="27" y="99.460465"/>
  </clipPath>
  <clipPath id="pa4caad356c">
   <rect height="101.134884" width="167.4" x="27" y="129.80093"/>
  </clipPath>
  <clipPath id="p44b726b5d2">
   <rect height="101.134884" width="167.4" x="27" y="160.141395"/>
  </clipPath>
  <clipPath id="pf83f52dbac">
   <rect height="101.134884" width="167.4" x="27" y="190.48186"/>
  </clipPath>
  <clipPath id="pbe1dd7605b">
   <rect height="101.134884" width="167.4" x="27" y="220.822326"/>
  </clipPath>
  <clipPath id="pb6ca8ae214">
   <rect height="101.134884" width="167.4" x="27" y="251.162791"/>
  </clipPath>
  <clipPath id="pca2e10f8fe">
   <rect height="101.134884" width="167.4" x="27" y="281.503256"/>
  </clipPath>
  <clipPath id="p3c88e27c67">
   <rect height="101.134884" width="167.4" x="27" y="311.843721"/>
  </clipPath>
  <clipPath id="p40b57019bd">
   <rect height="101.134884" width="167.4" x="27" y="342.184186"/>
  </clipPath>
  <clipPath id="pf1334cab01">
   <rect height="101.134884" width="167.4" x="27" y="372.524651"/>
  </clipPath>
  <clipPath id="p15f7e962af">
   <rect height="101.134884" width="167.4" x="27" y="402.865116"/>
  </clipPath>
 </defs>
</svg>
